<svg id="svg" xmlns="http://www.w3.org/2000/svg" xmlns:xlink="http://www.w3.org/1999/xlink" width="400" height="400" viewBox="0, 0, 400,400"><g id="svgg"><path id="path0" d="M119.200 58.297 C 122.121 58.495,122.579 59.057,120.148 59.459 L 118.200 59.781 120.000 60.031 C 121.422 60.227,121.070 60.292,118.324 60.340 C 116.412 60.373,114.746 60.564,114.622 60.765 C 114.222 61.412,111.337 61.692,110.495 61.166 C 109.829 60.750,109.504 60.832,108.355 61.703 C 107.596 62.277,106.161 62.853,105.095 63.011 C 104.047 63.166,103.092 63.452,102.971 63.646 C 102.851 63.841,102.245 64.000,101.625 64.000 C 101.005 64.000,100.289 64.252,100.033 64.561 C 99.364 65.366,97.714 65.689,96.792 65.196 C 96.123 64.838,96.000 64.899,96.000 65.586 C 96.000 66.133,95.738 66.400,95.200 66.400 C 94.760 66.400,94.400 66.537,94.400 66.704 C 94.400 67.687,92.671 68.056,91.363 67.352 C 90.040 66.640,90.019 66.642,88.950 67.617 C 88.356 68.158,88.001 68.375,88.159 68.100 C 88.701 67.159,87.906 67.599,86.713 68.900 C 86.057 69.615,85.638 69.975,85.783 69.700 C 85.929 69.425,85.857 69.200,85.624 69.200 C 85.054 69.200,85.109 69.646,85.789 70.544 C 86.419 71.376,85.853 72.800,84.891 72.800 C 84.607 72.800,84.271 73.070,84.145 73.400 C 84.018 73.730,83.709 74.002,83.457 74.004 C 82.938 74.009,80.739 75.787,78.115 78.323 C 76.462 79.921,74.858 80.428,75.100 79.276 C 75.263 78.498,74.431 78.733,73.410 79.753 C 72.510 80.654,72.312 81.645,72.912 82.245 C 73.059 82.393,73.529 82.083,73.956 81.557 C 74.382 81.030,74.855 80.723,75.006 80.873 C 75.403 81.269,72.466 84.088,71.974 83.784 C 71.697 83.613,71.715 83.344,72.030 82.964 C 72.326 82.607,72.345 82.400,72.082 82.400 C 71.416 82.400,68.322 85.551,68.580 85.967 C 68.708 86.175,68.602 86.475,68.345 86.634 C 68.052 86.815,67.984 86.750,68.162 86.462 C 68.319 86.208,68.249 86.000,68.006 86.000 C 67.763 86.000,67.618 86.244,67.682 86.543 C 67.747 86.842,67.227 87.623,66.526 88.279 C 65.253 89.472,65.101 90.072,65.788 91.200 C 66.103 91.717,66.060 91.724,65.481 91.255 C 65.111 90.955,64.907 90.550,65.028 90.355 C 65.149 90.160,65.037 90.000,64.781 90.000 C 64.524 90.000,64.421 90.277,64.550 90.615 C 64.687 90.971,64.526 91.330,64.170 91.467 C 63.831 91.597,63.646 91.943,63.759 92.237 C 63.871 92.530,63.522 93.118,62.982 93.543 C 62.442 93.968,62.000 94.604,62.000 94.958 C 62.000 95.311,61.801 95.600,61.557 95.600 C 61.314 95.600,61.214 95.861,61.337 96.180 C 61.485 96.567,61.367 96.685,60.980 96.537 C 60.550 96.372,60.400 96.636,60.400 97.557 C 60.400 98.241,60.201 98.800,59.957 98.800 C 59.714 98.800,59.614 99.061,59.737 99.380 C 59.885 99.767,59.767 99.885,59.380 99.737 C 58.986 99.586,58.800 99.786,58.800 100.357 C 58.800 100.821,58.620 101.200,58.400 101.200 C 58.180 101.200,58.000 101.560,58.000 102.000 C 58.000 102.440,57.820 102.800,57.600 102.800 C 57.380 102.800,57.200 103.160,57.200 103.600 C 57.200 104.040,57.020 104.400,56.800 104.400 C 56.580 104.400,56.400 104.760,56.400 105.200 C 56.400 105.640,56.220 106.000,56.000 106.000 C 55.780 106.000,55.600 106.360,55.600 106.800 C 55.600 107.240,55.420 107.600,55.200 107.600 C 54.980 107.600,54.800 107.960,54.800 108.400 C 54.800 108.840,54.620 109.200,54.400 109.200 C 54.180 109.200,54.000 109.560,54.000 110.000 C 54.000 110.440,53.820 110.800,53.600 110.800 C 53.380 110.800,53.200 111.340,53.200 112.000 C 53.200 112.660,53.020 113.200,52.800 113.200 C 52.580 113.200,52.400 113.560,52.400 114.000 C 52.400 114.440,52.220 114.800,52.000 114.800 C 51.780 114.800,51.600 115.340,51.600 116.000 C 51.600 116.660,51.420 117.200,51.200 117.200 C 50.980 117.200,50.800 117.740,50.800 118.400 C 50.800 119.060,50.620 119.600,50.400 119.600 C 50.180 119.600,50.000 119.960,50.000 120.400 C 50.000 120.840,49.820 121.200,49.600 121.200 C 49.380 121.200,49.200 121.740,49.200 122.400 C 49.200 123.060,49.020 123.600,48.800 123.600 C 48.580 123.600,48.400 124.140,48.400 124.800 C 48.400 125.460,48.220 126.000,48.000 126.000 C 47.780 126.000,47.600 126.540,47.600 127.200 C 47.600 127.860,47.420 128.400,47.200 128.400 C 46.980 128.400,46.800 129.120,46.800 130.000 C 46.800 130.880,46.620 131.600,46.400 131.600 C 46.180 131.600,46.000 132.320,46.000 133.200 C 46.000 134.080,45.820 134.800,45.600 134.800 C 45.380 134.800,45.200 135.520,45.200 136.400 C 45.200 137.280,45.020 138.000,44.800 138.000 C 44.580 138.000,44.400 138.720,44.400 139.600 C 44.400 140.480,44.220 141.200,44.000 141.200 C 43.780 141.200,43.600 142.100,43.600 143.200 C 43.600 144.300,43.420 145.200,43.200 145.200 C 42.980 145.200,42.800 146.100,42.800 147.200 C 42.800 148.300,42.620 149.200,42.400 149.200 C 42.180 149.200,42.000 150.100,42.000 151.200 C 42.000 152.300,41.820 153.200,41.600 153.200 C 41.371 153.200,41.200 154.400,41.200 156.000 C 41.200 157.600,41.029 158.800,40.800 158.800 C 40.571 158.800,40.400 160.000,40.400 161.600 C 40.400 163.200,40.229 164.400,40.000 164.400 C 39.758 164.400,39.600 166.133,39.600 168.800 C 39.600 171.467,39.442 173.200,39.200 173.200 C 38.954 173.200,38.800 175.200,38.800 178.400 C 38.800 181.600,38.646 183.600,38.400 183.600 C 38.138 183.600,38.000 191.067,38.000 205.200 C 38.000 219.333,38.138 226.800,38.400 226.800 C 38.648 226.800,38.800 228.933,38.800 232.400 C 38.800 235.867,38.952 238.000,39.200 238.000 C 39.437 238.000,39.600 239.467,39.600 241.600 C 39.600 243.733,39.763 245.200,40.000 245.200 C 40.237 245.200,40.400 246.667,40.400 248.800 C 40.400 250.933,40.563 252.400,40.800 252.400 C 41.020 252.400,41.200 253.300,41.200 254.400 C 41.200 255.500,41.380 256.400,41.600 256.400 C 41.822 256.400,42.000 257.467,42.000 258.800 C 42.000 260.133,42.178 261.200,42.400 261.200 C 42.622 261.200,42.800 262.267,42.800 263.600 C 42.800 264.933,42.978 266.000,43.200 266.000 C 43.420 266.000,43.600 266.720,43.600 267.600 C 43.600 268.480,43.780 269.200,44.000 269.200 C 44.220 269.200,44.400 269.920,44.400 270.800 C 44.400 271.680,44.580 272.400,44.800 272.400 C 45.020 272.400,45.200 273.300,45.200 274.400 C 45.200 275.500,45.380 276.400,45.600 276.400 C 45.820 276.400,46.000 276.940,46.000 277.600 C 46.000 278.260,46.180 278.800,46.400 278.800 C 46.620 278.800,46.800 279.340,46.800 280.000 C 46.800 280.660,46.980 281.200,47.200 281.200 C 47.420 281.200,47.600 281.920,47.600 282.800 C 47.600 283.680,47.780 284.400,48.000 284.400 C 48.220 284.400,48.400 284.940,48.400 285.600 C 48.400 286.260,48.580 286.800,48.800 286.800 C 49.020 286.800,49.200 287.340,49.200 288.000 C 49.200 288.660,49.380 289.200,49.600 289.200 C 49.820 289.200,50.000 289.560,50.000 290.000 C 50.000 290.440,50.180 290.800,50.400 290.800 C 50.620 290.800,50.800 291.340,50.800 292.000 C 50.800 292.660,50.980 293.200,51.200 293.200 C 51.420 293.200,51.600 293.560,51.600 294.000 C 51.600 294.440,51.780 294.800,52.000 294.800 C 52.220 294.800,52.400 295.160,52.400 295.600 C 52.400 296.040,52.580 296.400,52.800 296.400 C 53.020 296.400,53.200 296.940,53.200 297.600 C 53.200 298.260,53.380 298.800,53.600 298.800 C 53.820 298.800,54.000 299.160,54.000 299.600 C 54.000 300.040,54.180 300.400,54.400 300.400 C 54.620 300.400,54.800 300.900,54.800 301.512 C 54.800 302.165,55.130 302.861,55.600 303.200 C 56.040 303.517,56.400 304.097,56.400 304.488 C 56.400 304.880,56.580 305.200,56.800 305.200 C 57.020 305.200,57.200 305.560,57.200 306.000 C 57.200 306.440,57.380 306.800,57.600 306.800 C 57.820 306.800,58.000 307.089,58.000 307.442 C 58.000 307.796,58.452 308.440,59.004 308.874 C 59.556 309.309,59.901 309.837,59.770 310.048 C 59.640 310.259,60.000 310.799,60.570 311.248 C 61.141 311.697,61.502 312.235,61.373 312.443 C 61.245 312.652,61.693 313.339,62.370 313.972 C 63.046 314.604,63.600 315.369,63.600 315.672 C 63.600 315.975,63.960 316.483,64.400 316.800 C 64.840 317.117,65.200 317.619,65.200 317.914 C 65.200 318.210,66.100 319.329,67.200 320.400 C 68.300 321.471,69.200 322.544,69.200 322.785 C 69.200 323.361,72.651 326.800,73.229 326.800 C 73.477 326.800,74.196 327.354,74.828 328.030 C 75.461 328.707,76.160 329.148,76.384 329.010 C 77.461 328.344,84.348 331.913,83.775 332.841 C 83.656 333.033,83.838 333.084,84.179 332.953 C 84.953 332.656,84.956 333.160,84.187 334.176 C 83.080 335.640,84.222 336.224,85.824 335.013 C 86.581 334.440,86.577 334.425,85.700 334.413 C 85.205 334.406,84.800 334.220,84.800 334.000 C 84.800 333.497,85.874 333.473,86.181 333.969 C 86.306 334.172,86.932 334.453,87.571 334.594 C 88.210 334.734,88.827 335.094,88.942 335.393 C 89.057 335.693,89.567 336.001,90.076 336.078 C 90.584 336.156,90.957 336.433,90.905 336.695 C 90.849 336.975,91.066 337.073,91.432 336.932 C 91.982 336.721,93.860 337.413,94.400 338.026 C 94.610 338.264,98.686 339.500,100.400 339.846 C 100.950 339.956,101.460 340.216,101.533 340.424 C 101.607 340.631,102.455 340.800,103.419 340.800 C 105.511 340.800,108.799 341.846,109.433 342.713 C 109.838 343.267,109.926 343.260,110.269 342.648 C 110.743 341.801,113.914 342.347,114.489 343.373 C 114.682 343.718,115.101 344.000,115.420 344.000 C 115.739 344.000,116.000 344.270,116.000 344.600 C 116.000 345.113,117.156 345.200,124.000 345.200 C 130.844 345.200,132.000 345.113,132.000 344.600 C 132.000 344.270,132.276 344.000,132.613 344.000 C 132.949 344.000,133.323 343.744,133.443 343.431 C 133.816 342.460,137.315 341.615,137.788 342.381 C 137.931 342.611,138.247 342.800,138.490 342.800 C 138.734 342.800,138.807 342.673,138.652 342.519 C 138.172 342.039,141.691 340.900,143.076 341.087 C 143.979 341.209,144.751 341.005,145.555 340.432 C 146.198 339.974,147.236 339.594,147.862 339.587 C 148.488 339.580,149.349 339.310,149.776 338.987 C 150.204 338.664,150.999 338.400,151.545 338.400 C 152.091 338.400,152.864 338.104,153.263 337.743 C 153.663 337.381,154.531 337.066,155.194 337.043 C 155.867 337.019,156.399 336.780,156.399 336.500 C 156.400 336.225,156.749 336.000,157.176 336.000 C 157.603 336.000,158.072 335.807,158.217 335.572 C 158.743 334.722,160.170 334.493,161.110 335.109 C 162.191 335.817,162.919 335.369,161.899 334.623 C 161.098 334.037,160.993 333.600,161.653 333.600 C 161.902 333.600,162.432 333.225,162.829 332.766 C 163.537 331.950,165.123 331.825,164.874 332.605 C 164.804 332.822,164.485 332.946,164.165 332.880 C 163.287 332.700,162.183 333.943,162.733 334.493 C 163.054 334.814,163.241 334.760,163.420 334.292 C 163.555 333.939,163.924 333.750,164.240 333.871 C 164.570 333.997,165.164 333.645,165.639 333.042 C 166.093 332.465,166.650 332.107,166.877 332.247 C 167.637 332.718,167.993 331.455,167.312 330.703 C 166.713 330.041,166.722 329.944,167.432 329.406 C 168.433 328.649,169.200 328.647,169.200 329.400 C 169.200 329.730,168.975 330.005,168.700 330.012 C 168.421 330.019,168.507 330.203,168.896 330.430 C 169.747 330.925,172.611 328.327,172.250 327.387 C 172.017 326.778,173.536 323.600,174.061 323.600 C 174.233 323.600,175.034 322.939,175.842 322.131 C 177.203 320.770,177.348 320.715,177.829 321.371 C 178.404 322.159,181.515 319.634,180.999 318.798 C 180.863 318.579,181.029 318.513,181.379 318.647 C 181.805 318.811,182.000 318.649,182.000 318.131 C 182.000 317.716,182.360 317.117,182.800 316.800 C 183.240 316.483,183.600 315.943,183.600 315.600 C 183.600 315.257,183.960 314.717,184.400 314.400 C 184.840 314.083,185.200 313.543,185.200 313.200 C 185.200 312.857,185.560 312.317,186.000 312.000 C 186.440 311.683,186.800 311.143,186.800 310.800 C 186.800 310.457,187.160 309.917,187.600 309.600 C 188.040 309.283,188.400 308.743,188.400 308.400 C 188.400 308.057,188.760 307.517,189.200 307.200 C 189.640 306.883,190.000 306.303,190.000 305.912 C 190.000 305.520,190.180 305.200,190.400 305.200 C 190.620 305.200,190.800 304.840,190.800 304.400 C 190.800 303.960,190.980 303.600,191.200 303.600 C 191.420 303.600,191.600 303.240,191.600 302.800 C 191.600 302.360,191.780 302.000,192.000 302.000 C 192.220 302.000,192.400 301.640,192.400 301.200 C 192.400 300.760,192.580 300.400,192.800 300.400 C 193.020 300.400,193.200 300.040,193.200 299.600 C 193.200 299.160,193.380 298.800,193.600 298.800 C 193.820 298.800,194.000 298.440,194.000 298.000 C 194.000 297.560,194.180 297.200,194.400 297.200 C 194.620 297.200,194.800 296.840,194.800 296.400 C 194.800 295.960,194.980 295.600,195.200 295.600 C 195.420 295.600,195.600 295.060,195.600 294.400 C 195.600 293.740,195.780 293.200,196.000 293.200 C 196.220 293.200,196.400 292.840,196.400 292.400 C 196.400 291.960,196.580 291.600,196.800 291.600 C 197.020 291.600,197.200 291.060,197.200 290.400 C 197.200 289.740,197.380 289.200,197.600 289.200 C 197.820 289.200,198.000 288.840,198.000 288.400 C 198.000 287.960,198.180 287.600,198.400 287.600 C 198.620 287.600,198.800 287.060,198.800 286.400 C 198.800 285.740,198.980 285.200,199.200 285.200 C 199.420 285.200,199.600 284.660,199.600 284.000 C 199.600 283.340,199.780 282.800,200.000 282.800 C 200.220 282.800,200.400 282.080,200.400 281.200 C 200.400 280.320,200.580 279.600,200.800 279.600 C 201.020 279.600,201.200 279.060,201.200 278.400 C 201.200 277.740,201.380 277.200,201.600 277.200 C 201.820 277.200,202.000 276.480,202.000 275.600 C 202.000 274.720,202.180 274.000,202.400 274.000 C 202.620 274.000,202.800 273.460,202.800 272.800 C 202.800 272.140,202.980 271.600,203.200 271.600 C 203.420 271.600,203.600 270.700,203.600 269.600 C 203.600 268.500,203.780 267.600,204.000 267.600 C 204.220 267.600,204.400 266.880,204.400 266.000 C 204.400 265.120,204.580 264.400,204.800 264.400 C 205.020 264.400,205.200 263.500,205.200 262.400 C 205.200 261.300,205.380 260.400,205.600 260.400 C 205.822 260.400,206.000 259.333,206.000 258.000 C 206.000 256.667,206.178 255.600,206.400 255.600 C 206.620 255.600,206.800 254.700,206.800 253.600 C 206.800 252.500,206.980 251.600,207.200 251.600 C 207.437 251.600,207.600 250.133,207.600 248.000 C 207.600 245.867,207.763 244.400,208.000 244.400 C 208.233 244.400,208.400 243.067,208.400 241.200 C 208.400 239.333,208.567 238.000,208.800 238.000 C 209.042 238.000,209.200 236.267,209.200 233.600 C 209.200 230.933,209.358 229.200,209.600 229.200 C 209.853 229.200,210.000 226.400,210.000 221.600 C 210.000 216.800,210.147 214.000,210.400 214.000 C 210.658 214.000,210.800 209.467,210.800 201.200 C 210.800 192.933,210.658 188.400,210.400 188.400 C 210.147 188.400,210.000 185.600,210.000 180.800 C 210.000 176.000,209.853 173.200,209.600 173.200 C 209.354 173.200,209.200 171.200,209.200 168.000 C 209.200 164.800,209.046 162.800,208.800 162.800 C 208.567 162.800,208.400 161.467,208.400 159.600 C 208.400 157.733,208.233 156.400,208.000 156.400 C 207.771 156.400,207.600 155.200,207.600 153.600 C 207.600 152.000,207.429 150.800,207.200 150.800 C 206.978 150.800,206.800 149.733,206.800 148.400 C 206.800 147.067,206.622 146.000,206.400 146.000 C 206.180 146.000,206.000 145.100,206.000 144.000 C 206.000 142.900,205.820 142.000,205.600 142.000 C 205.380 142.000,205.200 141.100,205.200 140.000 C 205.200 138.900,205.020 138.000,204.800 138.000 C 204.580 138.000,204.400 137.280,204.400 136.400 C 204.400 135.520,204.220 134.800,204.000 134.800 C 203.780 134.800,203.600 133.900,203.600 132.800 C 203.600 131.700,203.420 130.800,203.200 130.800 C 202.980 130.800,202.800 130.260,202.800 129.600 C 202.800 128.940,202.620 128.400,202.400 128.400 C 202.180 128.400,202.000 127.680,202.000 126.800 C 202.000 125.920,201.820 125.200,201.600 125.200 C 201.380 125.200,201.200 124.660,201.200 124.000 C 201.200 123.340,201.020 122.800,200.800 122.800 C 200.580 122.800,200.400 122.080,200.400 121.200 C 200.400 120.320,200.220 119.600,200.000 119.600 C 199.780 119.600,199.600 119.060,199.600 118.400 C 199.600 117.740,199.420 117.200,199.200 117.200 C 198.980 117.200,198.800 116.660,198.800 116.000 C 198.800 115.340,198.620 114.800,198.400 114.800 C 198.180 114.800,198.000 114.440,198.000 114.000 C 198.000 113.560,197.820 113.200,197.600 113.200 C 197.380 113.200,197.200 112.660,197.200 112.000 C 197.200 111.340,197.020 110.800,196.800 110.800 C 196.580 110.800,196.400 110.440,196.400 110.000 C 196.400 109.560,196.220 109.200,196.000 109.200 C 195.780 109.200,195.600 108.660,195.600 108.000 C 195.600 107.340,195.420 106.800,195.200 106.800 C 194.980 106.800,194.800 106.440,194.800 106.000 C 194.800 105.560,194.620 105.200,194.400 105.200 C 194.180 105.200,194.000 104.840,194.000 104.400 C 194.000 103.960,193.820 103.600,193.600 103.600 C 193.380 103.600,193.200 103.240,193.200 102.800 C 193.200 102.360,193.020 102.000,192.800 102.000 C 192.580 102.000,192.400 101.640,192.400 101.200 C 192.400 100.760,192.220 100.400,192.000 100.400 C 191.780 100.400,191.600 100.040,191.600 99.600 C 191.600 99.160,191.420 98.800,191.200 98.800 C 190.980 98.800,190.800 98.440,190.800 98.000 C 190.800 97.560,190.620 97.200,190.400 97.200 C 190.180 97.200,190.000 96.880,190.000 96.488 C 190.000 96.097,189.640 95.517,189.200 95.200 C 188.760 94.883,188.400 94.343,188.400 94.000 C 188.400 93.657,188.040 93.117,187.600 92.800 C 187.160 92.483,186.800 91.943,186.800 91.600 C 186.800 91.257,186.440 90.717,186.000 90.400 C 185.560 90.083,185.200 89.569,185.200 89.259 C 185.200 88.586,183.693 87.200,182.962 87.200 C 182.645 87.200,182.512 86.859,182.616 86.319 C 182.709 85.835,182.564 85.297,182.293 85.125 C 181.490 84.616,181.066 84.756,181.570 85.364 C 181.899 85.760,181.911 86.008,181.609 86.194 C 181.150 86.478,178.144 83.722,178.512 83.354 C 178.894 82.973,180.435 84.020,180.156 84.472 C 180.004 84.717,180.113 84.829,180.409 84.730 C 181.473 84.376,181.125 83.066,179.573 81.574 C 178.708 80.743,178.000 79.856,178.000 79.603 C 178.000 79.009,176.991 78.000,176.397 78.000 C 176.144 78.000,175.221 77.254,174.345 76.343 C 173.291 75.246,172.619 74.821,172.356 75.084 C 171.846 75.594,170.161 75.275,169.563 74.556 C 169.310 74.250,168.873 74.000,168.594 74.000 C 168.314 74.000,167.982 73.730,167.855 73.400 C 167.729 73.070,167.330 72.800,166.970 72.800 C 166.577 72.800,166.399 72.579,166.526 72.249 C 166.806 71.520,166.047 70.800,164.998 70.800 C 163.845 70.800,160.293 68.497,160.623 67.963 C 160.781 67.707,160.589 67.579,160.144 67.644 C 159.172 67.787,157.600 67.249,157.600 66.773 C 157.600 66.224,158.301 66.319,158.535 66.900 C 158.656 67.199,158.750 67.118,158.768 66.700 C 158.786 66.315,158.980 66.000,159.200 66.000 C 159.420 66.000,159.600 65.805,159.600 65.567 C 159.600 65.328,159.375 65.215,159.100 65.314 C 158.825 65.414,158.290 65.225,157.910 64.895 C 157.317 64.378,157.038 64.370,155.911 64.837 C 154.510 65.417,152.753 65.365,152.359 64.730 C 152.226 64.517,151.506 64.186,150.759 63.995 C 146.688 62.955,145.668 62.556,144.312 61.473 C 143.493 60.820,142.919 60.131,143.035 59.943 C 143.152 59.754,142.882 59.600,142.436 59.600 C 141.923 59.600,141.701 59.797,141.831 60.136 C 142.278 61.302,140.919 61.754,138.556 61.225 C 137.336 60.952,134.778 60.590,132.869 60.420 C 130.497 60.209,129.969 60.085,131.200 60.028 C 133.218 59.934,132.417 59.280,130.220 59.228 C 128.020 59.176,129.730 58.446,132.400 58.298 C 133.830 58.219,130.950 58.153,126.000 58.151 C 121.050 58.149,117.990 58.215,119.200 58.297 M224.881 62.619 C 223.619 64.049,224.503 73.393,225.879 73.160 C 226.055 73.130,229.215 73.127,232.900 73.153 L 239.600 73.200 239.600 202.000 L 239.600 330.800 232.571 330.800 C 227.013 330.800,225.423 330.920,224.971 331.371 C 224.289 332.053,224.132 340.000,224.800 340.000 C 225.020 340.000,225.200 339.865,225.200 339.700 C 225.200 339.234,321.375 339.541,321.533 340.007 C 321.607 340.223,322.040 340.400,322.495 340.400 C 323.299 340.400,323.302 340.424,322.600 341.200 C 321.806 342.078,322.138 342.319,322.981 341.476 C 323.780 340.677,323.836 332.179,323.048 331.391 C 322.547 330.890,320.099 330.800,307.029 330.800 L 291.600 330.800 291.600 272.447 C 291.600 214.430,291.595 214.092,290.800 213.884 C 289.755 213.611,289.615 210.233,290.633 209.843 C 291.970 209.330,301.853 209.594,303.836 210.196 C 304.916 210.523,306.250 210.814,306.800 210.842 C 307.482 210.877,307.577 210.951,307.100 211.076 C 306.130 211.329,306.225 211.854,307.300 212.177 C 308.174 212.439,308.177 212.457,307.400 212.795 L 306.600 213.144 307.400 213.166 C 308.484 213.196,309.364 212.589,309.028 212.045 C 308.876 211.800,308.943 211.600,309.176 211.600 C 309.409 211.600,309.600 211.763,309.600 211.963 C 309.600 212.162,309.951 212.233,310.380 212.121 C 310.818 212.007,311.679 212.287,312.342 212.759 C 312.992 213.221,313.637 213.600,313.775 213.600 C 314.175 213.600,316.623 216.156,317.448 217.435 L 318.200 218.600 317.100 217.891 C 315.830 217.072,315.625 217.536,316.791 218.591 C 317.225 218.985,317.482 219.468,317.360 219.665 C 317.239 219.861,317.693 220.539,318.370 221.172 C 319.046 221.804,319.600 222.569,319.600 222.872 C 319.600 223.175,319.960 223.683,320.400 224.000 C 320.840 224.317,321.200 224.897,321.200 225.288 C 321.200 225.680,321.380 226.000,321.600 226.000 C 321.820 226.000,322.000 226.540,322.000 227.200 C 322.000 227.860,322.180 228.400,322.400 228.400 C 322.620 228.400,322.800 228.760,322.800 229.200 C 322.800 229.640,322.980 230.000,323.200 230.000 C 323.420 230.000,323.600 230.360,323.600 230.800 C 323.600 231.240,323.780 231.600,324.000 231.600 C 324.220 231.600,324.400 232.140,324.400 232.800 C 324.400 233.460,324.580 234.000,324.800 234.000 C 325.020 234.000,325.200 234.540,325.200 235.200 C 325.200 235.860,325.380 236.400,325.600 236.400 C 325.820 236.400,326.000 237.120,326.000 238.000 C 326.000 238.880,326.180 239.600,326.400 239.600 C 326.620 239.600,326.800 240.140,326.800 240.800 C 326.800 241.460,326.980 242.000,327.200 242.000 C 327.420 242.000,327.600 242.720,327.600 243.600 C 327.600 244.480,327.780 245.200,328.000 245.200 C 328.220 245.200,328.400 246.100,328.400 247.200 C 328.400 248.300,328.580 249.200,328.800 249.200 C 329.020 249.200,329.200 249.920,329.200 250.800 C 329.200 251.680,329.380 252.400,329.600 252.400 C 329.822 252.400,330.000 253.467,330.000 254.800 C 330.000 256.133,330.178 257.200,330.400 257.200 C 330.622 257.200,330.800 258.267,330.800 259.600 C 330.800 260.933,330.978 262.000,331.200 262.000 C 331.420 262.000,331.600 262.270,331.600 262.600 C 331.600 262.930,331.849 263.200,332.153 263.200 C 332.458 263.200,332.791 263.523,332.895 263.918 C 333.183 265.023,336.388 265.131,336.672 264.046 C 336.894 263.199,337.838 262.653,338.439 263.024 C 339.064 263.410,338.902 148.845,338.277 148.219 C 336.828 146.770,332.628 147.770,332.503 149.594 C 332.466 150.141,332.248 150.651,332.018 150.727 C 331.788 150.804,331.600 151.932,331.600 153.233 C 331.600 154.544,331.422 155.600,331.200 155.600 C 330.978 155.600,330.800 156.667,330.800 158.000 C 330.800 159.333,330.622 160.400,330.400 160.400 C 330.180 160.400,330.000 161.120,330.000 162.000 C 330.000 162.880,329.820 163.600,329.600 163.600 C 329.380 163.600,329.200 164.320,329.200 165.200 C 329.200 166.080,329.020 166.800,328.800 166.800 C 328.580 166.800,328.400 167.520,328.400 168.400 C 328.400 169.280,328.220 170.000,328.000 170.000 C 327.780 170.000,327.600 170.540,327.600 171.200 C 327.600 171.860,327.420 172.400,327.200 172.400 C 326.980 172.400,326.800 172.940,326.800 173.600 C 326.800 174.260,326.620 174.800,326.400 174.800 C 326.180 174.800,326.000 175.340,326.000 176.000 C 326.000 176.660,325.820 177.200,325.600 177.200 C 325.380 177.200,325.200 177.560,325.200 178.000 C 325.200 178.440,325.020 178.800,324.800 178.800 C 324.580 178.800,324.400 179.160,324.400 179.600 C 324.400 180.040,324.220 180.400,324.000 180.400 C 323.780 180.400,323.600 180.940,323.600 181.600 C 323.600 182.260,323.420 182.800,323.200 182.800 C 322.980 182.800,322.800 183.120,322.800 183.512 C 322.800 183.903,322.440 184.483,322.000 184.800 C 321.560 185.117,321.200 185.657,321.200 186.000 C 321.200 186.343,320.840 186.883,320.400 187.200 C 319.960 187.517,319.600 188.057,319.600 188.400 C 319.600 188.743,319.240 189.283,318.800 189.600 C 318.360 189.917,318.000 190.402,318.000 190.678 C 318.000 191.356,312.801 196.632,312.283 196.479 C 311.734 196.316,311.223 197.196,311.480 197.864 C 311.739 198.539,312.668 198.563,312.935 197.900 C 313.087 197.523,313.145 197.520,313.168 197.886 C 313.207 198.474,311.816 199.283,311.431 198.898 C 311.280 198.747,311.031 198.823,310.878 199.066 C 310.449 199.750,306.940 201.600,306.072 201.600 C 305.152 201.600,304.224 200.609,304.589 200.018 C 304.764 199.734,302.723 199.600,298.224 199.600 L 291.600 199.600 291.600 136.400 L 291.600 73.200 296.987 73.200 C 301.612 73.200,302.342 73.115,302.145 72.600 C 301.987 72.190,302.168 72.000,302.714 72.000 C 303.154 72.000,303.627 71.705,303.766 71.345 C 304.109 70.450,307.766 70.877,309.270 71.988 C 309.916 72.466,310.457 72.632,310.602 72.396 C 311.015 71.728,312.505 71.955,314.568 73.002 C 315.650 73.551,316.775 74.000,317.068 74.000 C 317.361 74.000,317.600 74.201,317.600 74.447 C 317.600 74.708,317.974 74.803,318.500 74.675 L 319.400 74.457 318.500 75.077 C 317.465 75.790,317.327 76.400,318.200 76.400 C 318.530 76.400,318.800 76.599,318.800 76.843 C 318.800 77.086,319.061 77.186,319.380 77.063 C 319.767 76.915,319.885 77.033,319.737 77.420 C 319.572 77.850,319.836 78.000,320.757 78.000 C 321.441 78.000,322.000 78.180,322.000 78.400 C 322.000 78.620,322.360 78.800,322.800 78.800 C 323.240 78.800,323.600 78.979,323.600 79.197 C 323.600 79.615,324.503 79.534,325.727 79.007 C 327.353 78.306,331.025 81.469,330.337 82.978 C 329.918 83.898,330.050 84.133,332.041 86.016 C 333.229 87.138,334.150 88.238,334.089 88.461 C 334.028 88.685,334.424 89.219,334.971 89.648 C 335.547 90.102,335.869 90.675,335.739 91.015 C 335.615 91.337,335.714 91.600,335.957 91.600 C 336.201 91.600,336.400 91.979,336.400 92.443 C 336.400 93.014,336.586 93.214,336.980 93.063 C 337.367 92.915,337.485 93.033,337.337 93.420 C 337.214 93.739,337.314 94.000,337.557 94.000 C 337.801 94.000,338.000 94.360,338.000 94.800 C 338.000 95.240,338.180 95.600,338.400 95.600 C 338.620 95.600,338.800 95.920,338.800 96.312 C 338.800 96.703,339.160 97.283,339.600 97.600 C 340.070 97.939,340.400 98.635,340.400 99.288 C 340.400 99.900,340.580 100.400,340.800 100.400 C 341.020 100.400,341.200 100.760,341.200 101.200 C 341.200 101.640,341.380 102.000,341.600 102.000 C 341.820 102.000,342.000 102.360,342.000 102.800 C 342.000 103.240,342.180 103.600,342.400 103.600 C 342.620 103.600,342.800 104.140,342.800 104.800 C 342.800 105.460,342.980 106.000,343.200 106.000 C 343.420 106.000,343.600 106.360,343.600 106.800 C 343.600 107.240,343.780 107.600,344.000 107.600 C 344.220 107.600,344.400 107.960,344.400 108.400 C 344.400 108.840,344.580 109.200,344.800 109.200 C 345.020 109.200,345.200 109.740,345.200 110.400 C 345.200 111.060,345.380 111.600,345.600 111.600 C 345.820 111.600,346.000 112.140,346.000 112.800 C 346.000 113.460,346.180 114.000,346.400 114.000 C 346.620 114.000,346.800 114.540,346.800 115.200 C 346.800 115.860,346.980 116.400,347.200 116.400 C 347.420 116.400,347.600 116.940,347.600 117.600 C 347.600 118.260,347.780 118.800,348.000 118.800 C 348.220 118.800,348.400 119.340,348.400 120.000 C 348.400 120.660,348.580 121.200,348.800 121.200 C 349.020 121.200,349.200 121.920,349.200 122.800 C 349.200 123.680,349.380 124.400,349.600 124.400 C 349.820 124.400,350.000 124.940,350.000 125.600 C 350.000 126.260,350.180 126.800,350.400 126.800 C 350.620 126.800,350.800 127.340,350.800 128.000 C 350.800 128.660,350.980 129.200,351.200 129.200 C 351.420 129.200,351.600 129.920,351.600 130.800 C 351.600 131.680,351.780 132.400,352.000 132.400 C 352.220 132.400,352.400 133.120,352.400 134.000 C 352.400 134.880,352.580 135.600,352.800 135.600 C 353.020 135.600,353.200 136.320,353.200 137.200 C 353.200 138.080,353.380 138.800,353.600 138.800 C 353.820 138.800,354.000 139.700,354.000 140.800 C 354.000 141.900,354.180 142.800,354.400 142.800 C 354.620 142.800,354.800 143.263,354.800 143.829 C 354.800 145.883,359.774 147.083,361.429 145.429 C 362.127 144.730,362.293 125.200,361.600 125.200 C 361.342 125.200,361.200 120.667,361.200 112.400 C 361.200 104.133,361.058 99.600,360.800 99.600 C 360.542 99.600,360.400 95.067,360.400 86.800 C 360.400 78.533,360.258 74.000,360.000 74.000 C 359.753 74.000,359.600 71.924,359.600 68.571 C 359.600 64.400,359.468 63.011,359.029 62.571 C 358.153 61.696,225.654 61.742,224.881 62.619 M130.562 67.000 C 132.175 68.095,132.661 68.217,132.873 67.581 C 132.963 67.311,133.550 67.387,134.522 67.793 C 136.014 68.417,136.203 69.200,134.862 69.200 C 134.457 69.200,134.145 69.532,134.110 70.000 C 134.077 70.440,134.219 70.800,134.425 70.800 C 134.631 70.800,134.755 70.575,134.700 70.300 C 134.645 70.025,134.945 69.799,135.367 69.798 C 135.789 69.797,136.209 69.572,136.301 69.298 C 136.498 68.707,137.600 68.623,137.600 69.200 C 137.600 69.420,137.876 69.600,138.213 69.600 C 138.549 69.600,138.929 69.870,139.055 70.200 C 139.182 70.530,139.626 70.800,140.043 70.800 C 140.459 70.800,140.800 70.957,140.800 71.149 C 140.800 71.342,141.513 72.279,142.384 73.232 C 143.255 74.185,143.870 75.063,143.750 75.183 C 143.630 75.302,143.182 74.970,142.756 74.443 C 142.329 73.917,141.859 73.607,141.712 73.755 C 141.067 74.399,141.337 75.407,142.426 76.424 C 143.072 77.027,143.600 77.769,143.600 78.072 C 143.600 78.375,143.960 78.883,144.400 79.200 C 144.870 79.539,145.200 80.235,145.200 80.888 C 145.200 81.500,145.380 82.000,145.600 82.000 C 145.820 82.000,146.000 82.360,146.000 82.800 C 146.000 83.240,146.180 83.600,146.400 83.600 C 146.620 83.600,146.800 84.140,146.800 84.800 C 146.800 85.460,146.980 86.000,147.200 86.000 C 147.420 86.000,147.600 86.360,147.600 86.800 C 147.600 87.240,147.780 87.600,148.000 87.600 C 148.220 87.600,148.400 88.140,148.400 88.800 C 148.400 89.460,148.580 90.000,148.800 90.000 C 149.020 90.000,149.200 90.720,149.200 91.600 C 149.200 92.480,149.380 93.200,149.600 93.200 C 149.820 93.200,150.000 93.740,150.000 94.400 C 150.000 95.060,150.180 95.600,150.400 95.600 C 150.620 95.600,150.800 96.500,150.800 97.600 C 150.800 98.700,150.980 99.600,151.200 99.600 C 151.420 99.600,151.600 100.500,151.600 101.600 C 151.600 102.700,151.780 103.600,152.000 103.600 C 152.229 103.600,152.400 104.800,152.400 106.400 C 152.400 108.000,152.571 109.200,152.800 109.200 C 153.042 109.200,153.200 110.933,153.200 113.600 C 153.200 116.267,153.358 118.000,153.600 118.000 C 153.850 118.000,154.000 120.400,154.000 124.400 C 154.000 128.400,154.150 130.800,154.400 130.800 C 154.658 130.800,154.800 135.067,154.800 142.800 C 154.800 150.533,154.942 154.800,155.200 154.800 C 155.464 154.800,155.600 170.133,155.600 200.000 C 155.600 229.867,155.464 245.200,155.200 245.200 C 154.944 245.200,154.800 248.933,154.800 255.600 C 154.800 262.267,154.656 266.000,154.400 266.000 C 154.150 266.000,154.000 268.400,154.000 272.400 C 154.000 276.400,153.850 278.800,153.600 278.800 C 153.358 278.800,153.200 280.533,153.200 283.200 C 153.200 285.867,153.042 287.600,152.800 287.600 C 152.563 287.600,152.400 289.067,152.400 291.200 C 152.400 293.333,152.237 294.800,152.000 294.800 C 151.771 294.800,151.600 296.000,151.600 297.600 C 151.600 299.200,151.429 300.400,151.200 300.400 C 150.978 300.400,150.800 301.467,150.800 302.800 C 150.800 304.133,150.622 305.200,150.400 305.200 C 150.180 305.200,150.000 306.100,150.000 307.200 C 150.000 308.300,149.820 309.200,149.600 309.200 C 149.380 309.200,149.200 309.740,149.200 310.400 C 149.200 311.060,149.020 311.600,148.800 311.600 C 148.580 311.600,148.400 312.320,148.400 313.200 C 148.400 314.080,148.220 314.800,148.000 314.800 C 147.780 314.800,147.600 315.340,147.600 316.000 C 147.600 316.660,147.420 317.200,147.200 317.200 C 146.980 317.200,146.800 317.560,146.800 318.000 C 146.800 318.440,146.620 318.800,146.400 318.800 C 146.180 318.800,146.000 319.340,146.000 320.000 C 146.000 320.660,145.820 321.200,145.600 321.200 C 145.380 321.200,145.200 321.560,145.200 322.000 C 145.200 322.440,145.020 322.800,144.800 322.800 C 144.580 322.800,144.400 323.088,144.400 323.440 C 144.400 323.791,143.859 324.584,143.198 325.202 C 141.873 326.440,141.904 327.811,143.247 327.385 C 143.661 327.254,144.000 327.298,144.000 327.484 C 144.000 327.993,141.707 330.400,141.223 330.400 C 140.990 330.400,139.720 331.480,138.400 332.800 C 136.940 334.260,135.660 335.200,135.131 335.200 C 134.654 335.200,133.938 335.494,133.541 335.854 C 132.394 336.892,129.891 336.799,129.407 335.700 C 128.786 334.292,119.556 334.292,119.705 335.700 C 119.823 336.814,116.520 336.916,115.905 335.817 C 115.716 335.478,115.237 335.200,114.842 335.200 C 113.587 335.200,111.454 333.910,109.760 332.126 C 108.858 331.177,107.913 330.400,107.660 330.400 C 107.407 330.400,107.200 330.111,107.200 329.757 C 107.200 329.384,107.425 329.201,107.736 329.320 C 109.466 329.984,109.211 328.758,107.214 326.814 C 105.774 325.411,105.100 324.436,105.100 323.754 C 105.100 323.087,104.923 322.821,104.570 322.956 C 104.233 323.085,104.121 322.949,104.263 322.580 C 104.386 322.261,104.286 322.000,104.043 322.000 C 103.799 322.000,103.600 321.640,103.600 321.200 C 103.600 320.760,103.420 320.400,103.200 320.400 C 102.980 320.400,102.800 320.040,102.800 319.600 C 102.800 319.160,102.620 318.800,102.400 318.800 C 102.180 318.800,102.000 318.440,102.000 318.000 C 102.000 317.560,101.820 317.200,101.600 317.200 C 101.380 317.200,101.200 316.840,101.200 316.400 C 101.200 315.960,101.020 315.600,100.800 315.600 C 100.580 315.600,100.400 315.060,100.400 314.400 C 100.400 313.740,100.220 313.200,100.000 313.200 C 99.780 313.200,99.600 312.660,99.600 312.000 C 99.600 311.340,99.420 310.800,99.200 310.800 C 98.980 310.800,98.800 309.900,98.800 308.800 C 98.800 307.700,98.620 306.800,98.400 306.800 C 98.180 306.800,98.000 306.080,98.000 305.200 C 98.000 304.320,97.820 303.600,97.600 303.600 C 97.380 303.600,97.200 302.700,97.200 301.600 C 97.200 300.500,97.020 299.600,96.800 299.600 C 96.571 299.600,96.400 298.400,96.400 296.800 C 96.400 295.200,96.229 294.000,96.000 294.000 C 95.771 294.000,95.600 292.800,95.600 291.200 C 95.600 289.600,95.429 288.400,95.200 288.400 C 94.960 288.400,94.800 286.800,94.800 284.400 C 94.800 282.000,94.640 280.400,94.400 280.400 C 94.151 280.400,94.000 278.133,94.000 274.400 C 94.000 270.667,93.849 268.400,93.600 268.400 C 93.341 268.400,93.200 263.467,93.200 254.400 C 93.200 245.333,93.059 240.400,92.800 240.400 C 92.536 240.400,92.400 227.733,92.400 203.200 C 92.400 178.667,92.536 166.000,92.800 166.000 C 93.060 166.000,93.200 160.400,93.200 150.000 C 93.200 139.600,93.340 134.000,93.600 134.000 C 93.851 134.000,94.000 131.467,94.000 127.200 C 94.000 122.933,94.149 120.400,94.400 120.400 C 94.637 120.400,94.800 118.933,94.800 116.800 C 94.800 114.667,94.963 113.200,95.200 113.200 C 95.433 113.200,95.600 111.867,95.600 110.000 C 95.600 108.133,95.767 106.800,96.000 106.800 C 96.222 106.800,96.400 105.733,96.400 104.400 C 96.400 103.067,96.578 102.000,96.800 102.000 C 97.020 102.000,97.200 101.280,97.200 100.400 C 97.200 99.520,97.380 98.800,97.600 98.800 C 97.820 98.800,98.000 98.080,98.000 97.200 C 98.000 96.320,98.180 95.600,98.400 95.600 C 98.620 95.600,98.800 95.060,98.800 94.400 C 98.800 93.740,98.980 93.200,99.200 93.200 C 99.420 93.200,99.600 92.660,99.600 92.000 C 99.600 91.340,99.780 90.800,100.000 90.800 C 100.220 90.800,100.400 90.260,100.400 89.600 C 100.400 88.940,100.580 88.400,100.800 88.400 C 101.020 88.400,101.200 87.860,101.200 87.200 C 101.200 86.540,101.380 86.000,101.600 86.000 C 101.820 86.000,102.000 85.640,102.000 85.200 C 102.000 84.760,102.180 84.400,102.400 84.400 C 102.620 84.400,102.800 83.860,102.800 83.200 C 102.800 82.540,102.980 82.000,103.200 82.000 C 103.420 82.000,103.600 81.640,103.600 81.200 C 103.600 80.760,103.780 80.400,104.000 80.400 C 104.220 80.400,104.400 80.040,104.400 79.600 C 104.400 79.160,104.580 78.800,104.800 78.800 C 105.020 78.800,105.200 78.440,105.200 78.000 C 105.200 77.560,105.380 77.200,105.600 77.200 C 105.820 77.200,106.000 76.855,106.000 76.433 C 106.000 76.012,106.212 75.596,106.471 75.510 C 106.739 75.420,106.807 75.136,106.630 74.849 C 106.459 74.572,106.067 74.442,105.760 74.560 C 104.961 74.867,105.053 74.673,106.347 73.318 C 106.978 72.658,107.653 71.866,107.847 71.559 C 108.249 70.923,109.466 70.089,110.500 69.742 C 110.885 69.612,111.200 69.348,111.200 69.153 C 111.200 68.959,111.468 68.800,111.795 68.800 C 112.174 68.800,112.356 69.127,112.295 69.700 C 112.215 70.457,112.406 70.610,113.500 70.665 C 114.215 70.701,114.800 70.582,114.800 70.400 C 114.800 70.219,114.390 70.115,113.890 70.170 C 112.722 70.299,112.626 68.286,113.788 68.060 C 114.369 67.947,114.460 68.107,114.262 68.894 C 114.075 69.642,114.178 69.868,114.709 69.873 C 115.724 69.882,116.048 69.116,115.354 68.349 C 114.880 67.825,114.857 67.612,115.250 67.369 C 115.535 67.193,115.821 67.262,115.910 67.529 C 116.140 68.219,116.825 68.073,118.400 67.000 C 120.563 65.527,128.391 65.527,130.562 67.000 M235.900 71.097 C 234.195 71.172,231.405 71.172,229.700 71.097 C 227.995 71.022,229.390 70.961,232.800 70.961 C 236.210 70.961,237.605 71.022,235.900 71.097 M297.700 71.095 C 296.545 71.176,294.655 71.176,293.500 71.095 C 292.345 71.014,293.290 70.948,295.600 70.948 C 297.910 70.948,298.855 71.014,297.700 71.095 M239.200 72.400 C 239.200 72.649,236.867 72.800,233.000 72.800 C 229.133 72.800,226.800 72.649,226.800 72.400 C 226.800 72.151,229.133 72.000,233.000 72.000 C 236.867 72.000,239.200 72.151,239.200 72.400 M300.200 72.400 C 300.062 72.623,298.204 72.800,296.000 72.800 C 293.796 72.800,291.938 72.623,291.800 72.400 C 291.641 72.142,293.137 72.000,296.000 72.000 C 298.863 72.000,300.359 72.142,300.200 72.400 M75.660 78.380 C 75.832 78.896,76.381 78.988,76.430 78.510 C 76.447 78.351,76.244 78.148,75.980 78.060 C 75.716 77.972,75.572 78.116,75.660 78.380 M332.400 83.600 C 332.400 83.820,331.995 83.997,331.500 83.994 C 330.772 83.989,330.715 83.914,331.200 83.600 C 331.976 83.099,332.400 83.099,332.400 83.600 M70.000 87.000 C 68.646 88.397,66.937 89.080,68.000 87.800 C 68.274 87.470,68.746 87.200,69.049 87.200 C 69.352 87.200,69.600 86.945,69.600 86.633 C 69.600 86.322,69.825 85.976,70.100 85.865 C 71.296 85.382,71.269 85.690,70.000 87.000 M337.600 89.933 C 337.600 90.454,337.124 90.801,336.738 90.561 C 336.324 90.306,336.681 89.600,337.224 89.600 C 337.431 89.600,337.600 89.750,337.600 89.933 M65.000 92.000 C 64.864 92.220,64.943 92.400,65.176 92.400 C 65.409 92.400,65.600 92.670,65.600 93.000 C 65.600 93.689,64.972 93.801,64.588 93.181 C 64.312 92.734,64.616 91.600,65.011 91.600 C 65.141 91.600,65.136 91.780,65.000 92.000 M336.400 148.400 C 336.400 148.620,336.040 148.800,335.600 148.800 C 335.160 148.800,334.800 148.620,334.800 148.400 C 334.800 148.180,335.160 148.000,335.600 148.000 C 336.040 148.000,336.400 148.180,336.400 148.400 M336.400 149.600 C 336.400 149.820,336.040 150.000,335.600 150.000 C 335.160 150.000,334.800 149.820,334.800 149.600 C 334.800 149.380,335.160 149.200,335.600 149.200 C 336.040 149.200,336.400 149.380,336.400 149.600 M310.500 213.112 C 310.005 213.191,309.600 213.423,309.600 213.628 C 309.600 214.142,311.093 214.098,311.416 213.573 C 311.759 213.020,311.594 212.937,310.500 213.112 M312.357 213.975 C 311.583 214.288,311.387 215.681,312.139 215.523 C 312.461 215.455,313.068 215.794,313.488 216.276 C 314.275 217.179,315.638 217.285,315.912 216.465 C 315.997 216.209,315.912 216.000,315.722 216.000 C 315.533 216.000,314.824 215.494,314.146 214.875 C 313.469 214.256,312.664 213.851,312.357 213.975 M72.313 323.209 C 72.781 323.959,72.759 323.981,72.009 323.513 C 71.203 323.009,70.926 322.400,71.504 322.400 C 71.671 322.400,72.035 322.764,72.313 323.209 M127.895 336.100 C 127.761 337.367,127.302 337.588,124.800 337.588 C 122.115 337.588,121.587 337.303,122.037 336.100 C 122.343 335.284,122.637 335.200,125.182 335.200 C 127.856 335.200,127.986 335.243,127.895 336.100 M91.500 338.432 C 90.728 338.882,90.558 339.600,91.224 339.600 C 91.457 339.600,91.512 339.375,91.347 339.100 C 91.110 338.707,91.173 338.703,91.642 339.081 C 92.233 339.559,94.000 339.644,94.000 339.195 C 94.000 338.222,92.596 337.794,91.500 338.432 M95.751 339.507 C 95.982 339.890,95.707 339.971,94.628 339.837 C 93.843 339.740,93.200 339.798,93.200 339.965 C 93.200 340.133,93.862 340.295,94.671 340.326 C 95.479 340.356,96.269 340.588,96.426 340.842 C 96.582 341.095,96.890 341.191,97.110 341.056 C 97.330 340.920,97.732 341.077,98.004 341.404 C 98.567 342.083,99.914 342.175,100.800 341.594 C 101.227 341.315,101.024 341.273,100.100 341.451 C 99.256 341.613,98.800 341.542,98.800 341.250 C 98.800 341.003,98.980 340.800,99.200 340.800 C 99.420 340.800,99.600 340.612,99.600 340.382 C 99.600 340.117,99.064 340.064,98.142 340.237 C 96.962 340.459,96.746 340.405,97.006 339.955 C 97.183 339.650,97.181 339.533,97.001 339.697 C 96.821 339.860,96.397 339.770,96.060 339.497 C 95.569 339.099,95.507 339.101,95.751 339.507 M224.400 340.567 C 224.400 340.988,225.605 342.128,225.821 341.912 C 225.922 341.811,225.644 341.402,225.202 341.002 C 224.761 340.603,224.400 340.407,224.400 340.567 M226.400 341.700 C 226.400 341.865,247.820 342.000,274.000 342.000 C 300.180 342.000,321.600 341.865,321.600 341.700 C 321.600 341.535,300.180 341.400,274.000 341.400 C 247.820 341.400,226.400 341.535,226.400 341.700 " stroke="none" fill="#fcfcfc" fill-rule="evenodd"></path><path id="path1" d="M111.600 59.200 L 110.200 60.398 111.800 60.390 C 112.770 60.385,113.794 60.074,114.400 59.600 C 114.950 59.170,115.625 58.814,115.900 58.809 C 116.175 58.804,116.400 58.620,116.400 58.400 C 116.400 57.429,113.009 57.994,111.600 59.200 M135.600 58.400 C 135.600 58.620,135.870 58.800,136.200 58.800 C 136.530 58.800,136.800 58.951,136.800 59.136 C 136.800 59.653,138.702 60.400,140.019 60.400 C 141.483 60.400,141.497 60.148,140.100 58.947 C 138.964 57.970,135.600 57.561,135.600 58.400 M105.346 60.198 C 105.219 60.526,104.955 60.696,104.758 60.574 C 104.561 60.452,104.400 60.543,104.400 60.776 C 104.400 61.439,105.007 61.276,105.800 60.400 C 106.232 59.923,106.332 59.600,106.049 59.600 C 105.788 59.600,105.472 59.869,105.346 60.198 M105.967 60.833 C 104.733 62.067,105.222 62.123,107.433 61.001 C 109.384 60.012,109.389 60.003,108.100 60.002 C 107.314 60.001,106.470 60.330,105.967 60.833 M97.900 62.557 C 97.515 62.849,97.200 63.383,97.200 63.744 C 97.200 64.656,98.523 64.569,99.400 63.600 C 99.798 63.160,100.411 62.782,100.762 62.760 C 101.113 62.738,100.950 62.576,100.400 62.400 C 98.972 61.943,98.685 61.961,97.900 62.557 M153.626 63.078 C 154.162 63.781,154.945 64.366,155.367 64.378 C 155.788 64.390,156.028 64.295,155.900 64.167 C 155.772 64.038,155.545 63.966,155.396 64.006 C 155.247 64.045,154.569 63.565,153.888 62.939 L 152.651 61.800 153.626 63.078 M127.194 67.542 C 127.190 67.927,127.066 68.031,126.894 67.791 C 126.726 67.557,126.002 67.492,125.200 67.639 C 123.973 67.863,123.936 67.901,124.900 67.947 C 125.505 67.976,126.071 67.955,126.158 67.900 C 126.245 67.845,126.737 68.160,127.251 68.600 C 127.765 69.040,127.966 69.113,127.697 68.763 C 127.427 68.413,127.323 68.011,127.464 67.869 C 127.605 67.728,127.928 67.895,128.180 68.241 C 128.451 68.611,129.066 68.813,129.678 68.734 C 130.642 68.610,130.590 68.538,128.958 67.742 C 127.406 66.984,127.199 66.961,127.194 67.542 M310.800 73.505 C 310.800 73.673,311.276 74.168,311.859 74.605 C 312.902 75.389,316.400 75.779,316.400 75.111 C 316.400 74.940,316.130 74.800,315.800 74.800 C 315.470 74.800,315.199 74.665,315.197 74.500 C 315.192 74.016,313.136 73.200,311.920 73.200 C 311.304 73.200,310.800 73.337,310.800 73.505 M290.544 211.001 C 290.145 212.043,290.761 213.701,291.449 213.436 C 291.788 213.306,295.201 213.200,299.033 213.200 C 306.590 213.200,306.985 213.063,304.046 211.464 C 301.652 210.161,291.007 209.796,290.544 211.001 M131.100 334.147 C 129.682 335.367,129.714 335.603,131.300 335.587 C 132.439 335.576,134.800 334.114,134.800 333.419 C 134.800 332.774,132.073 333.310,131.100 334.147 M104.235 341.893 L 103.071 342.066 104.435 343.232 C 105.773 344.375,109.600 344.991,109.600 344.064 C 109.600 343.747,105.861 341.531,105.546 341.660 C 105.466 341.693,104.876 341.798,104.235 341.893 M140.600 342.524 C 140.160 342.786,139.710 343.114,139.600 343.254 C 139.490 343.393,139.040 343.597,138.600 343.707 C 137.999 343.857,138.080 343.919,138.926 343.954 C 139.546 343.979,140.446 343.791,140.926 343.535 C 141.716 343.114,141.747 343.133,141.251 343.735 C 140.372 344.800,141.214 344.502,142.254 343.379 C 143.617 341.909,142.554 341.360,140.600 342.524 " stroke="none" fill="#cbd4fc" fill-rule="evenodd"></path><path id="path2" d="M116.400 58.333 C 116.400 58.590,116.175 58.804,115.900 58.809 C 115.625 58.814,114.950 59.170,114.400 59.600 C 113.422 60.365,110.130 60.760,110.562 60.061 C 110.960 59.417,106.548 59.540,106.011 60.187 C 105.735 60.519,105.322 60.675,105.093 60.534 C 104.851 60.384,104.796 60.470,104.962 60.738 C 105.119 60.992,105.057 61.200,104.824 61.200 C 104.591 61.200,104.400 61.009,104.400 60.776 C 104.400 60.543,104.227 60.460,104.015 60.591 C 103.555 60.875,104.979 62.401,105.700 62.398 C 105.975 62.397,106.920 61.958,107.800 61.423 C 109.076 60.646,109.742 60.496,111.089 60.678 C 112.776 60.905,115.200 60.241,115.200 59.551 C 115.200 59.358,115.459 59.200,115.776 59.200 C 116.429 59.200,117.004 58.471,116.640 58.107 C 116.508 57.975,116.400 58.077,116.400 58.333 M135.206 58.500 C 135.202 58.970,135.495 59.190,136.100 59.168 C 136.701 59.147,136.801 59.061,136.400 58.908 C 136.070 58.783,135.668 58.482,135.506 58.240 C 135.325 57.969,135.210 58.068,135.206 58.500 M137.400 60.185 C 138.406 61.003,141.264 60.874,141.499 60.000 C 141.632 59.509,141.591 59.499,141.276 59.949 C 140.890 60.501,139.080 60.445,137.400 59.828 L 136.600 59.535 137.400 60.185 M143.405 59.992 C 143.266 60.216,143.379 60.400,143.655 60.400 C 143.930 60.400,144.674 60.895,145.308 61.500 C 146.381 62.525,146.495 62.552,146.974 61.900 C 147.257 61.515,147.884 61.200,148.368 61.200 C 148.862 61.200,149.137 61.022,148.996 60.793 C 148.858 60.570,148.581 60.488,148.381 60.612 C 148.180 60.736,147.608 60.616,147.108 60.345 C 145.898 59.690,143.720 59.482,143.405 59.992 M107.433 61.001 C 105.222 62.123,104.733 62.067,105.967 60.833 C 106.470 60.330,107.314 60.001,108.100 60.002 C 109.389 60.003,109.384 60.012,107.433 61.001 M100.400 62.400 C 100.950 62.576,101.113 62.738,100.762 62.760 C 100.411 62.782,99.798 63.160,99.400 63.600 C 98.646 64.433,97.200 64.696,97.200 64.000 C 97.200 63.449,96.112 63.495,95.762 64.062 C 95.591 64.337,95.651 64.415,95.911 64.255 C 96.149 64.108,96.458 64.170,96.596 64.393 C 97.061 65.147,98.833 64.808,100.221 63.700 C 101.887 62.371,101.952 61.987,100.500 62.040 L 99.400 62.080 100.400 62.400 M150.400 62.396 C 150.400 62.632,150.715 62.942,151.100 63.085 C 151.485 63.228,152.091 63.672,152.447 64.072 C 152.809 64.479,153.602 64.786,154.247 64.768 C 154.881 64.751,155.175 64.646,154.900 64.535 C 154.625 64.424,154.400 64.158,154.400 63.943 C 154.400 63.728,154.625 63.682,154.900 63.841 C 155.175 63.999,154.997 63.685,154.504 63.143 C 153.563 62.108,150.400 61.532,150.400 62.396 M159.600 66.400 C 159.600 66.620,159.960 66.800,160.400 66.800 C 160.894 66.800,161.201 67.068,161.203 67.500 C 161.205 67.885,161.655 68.408,162.203 68.662 C 162.751 68.917,163.200 68.962,163.200 68.762 C 163.200 68.563,163.470 68.400,163.800 68.400 C 164.133 68.400,164.400 68.756,164.400 69.200 C 164.400 69.793,164.667 70.000,165.429 70.000 C 166.638 70.000,167.243 70.533,168.012 72.276 C 168.491 73.363,169.177 73.886,170.467 74.146 C 170.613 74.176,170.868 74.335,171.033 74.500 C 171.198 74.665,171.612 74.800,171.952 74.800 C 172.329 74.800,171.803 74.021,170.600 72.800 C 169.517 71.700,168.426 70.800,168.177 70.800 C 167.928 70.800,167.398 70.440,167.000 70.000 C 166.602 69.560,166.068 69.200,165.813 69.200 C 165.558 69.200,164.832 68.660,164.200 68.000 C 163.062 66.812,162.077 66.355,162.649 67.279 C 162.811 67.542,162.389 67.362,161.710 66.879 C 160.385 65.935,159.600 65.757,159.600 66.400 M118.695 67.535 C 117.647 68.152,116.912 68.779,117.062 68.928 C 117.529 69.396,120.614 69.225,121.179 68.700 C 121.616 68.294,121.658 68.312,121.400 68.800 C 121.142 69.288,121.184 69.306,121.621 68.900 C 121.918 68.625,123.069 68.373,124.180 68.340 C 125.291 68.307,125.724 68.207,125.142 68.118 C 124.559 68.028,123.767 67.605,123.380 67.177 C 122.407 66.103,120.937 66.215,118.695 67.535 M125.437 67.048 C 125.243 67.552,125.374 67.648,126.026 67.477 C 126.621 67.322,126.803 67.415,126.655 67.800 C 126.333 68.641,127.211 69.064,129.491 69.165 C 132.520 69.300,132.742 68.877,130.326 67.576 C 127.918 66.280,125.819 66.053,125.437 67.048 M129.678 68.734 C 129.025 68.819,128.447 68.605,128.120 68.158 C 127.648 67.513,127.413 67.670,127.563 68.530 C 127.594 68.711,127.452 68.756,127.247 68.629 C 125.798 67.733,127.349 66.957,128.990 67.757 C 130.599 68.543,130.646 68.609,129.678 68.734 M84.074 70.617 C 83.565 70.882,82.656 71.572,82.053 72.150 C 81.450 72.727,80.775 73.200,80.553 73.200 C 80.331 73.200,79.632 73.740,79.000 74.400 C 78.368 75.060,78.064 75.600,78.325 75.600 C 78.586 75.600,78.800 75.399,78.800 75.153 C 78.800 74.892,79.160 74.801,79.666 74.933 C 80.193 75.071,80.963 74.854,81.628 74.380 C 82.231 73.951,82.899 73.600,83.113 73.600 C 83.328 73.600,83.740 73.015,84.029 72.300 C 84.318 71.585,84.740 70.875,84.966 70.722 C 85.721 70.211,85.013 70.127,84.074 70.617 M110.000 71.200 C 110.000 71.420,109.595 71.614,109.100 71.632 C 108.605 71.649,108.425 71.754,108.700 71.865 C 109.294 72.104,109.376 73.200,108.800 73.200 C 108.580 73.200,108.400 73.415,108.400 73.678 C 108.400 73.942,108.994 73.582,109.719 72.878 C 110.445 72.175,111.244 71.600,111.495 71.600 C 111.747 71.600,112.064 71.420,112.200 71.200 C 112.344 70.967,111.937 70.800,111.224 70.800 C 110.551 70.800,110.000 70.980,110.000 71.200 M139.400 73.200 C 140.916 74.752,141.776 75.377,140.832 74.239 C 140.475 73.808,140.487 73.630,140.883 73.470 C 141.167 73.356,140.995 73.249,140.500 73.232 C 139.546 73.198,139.256 72.206,140.100 71.865 C 140.375 71.754,139.978 71.649,139.219 71.632 L 137.838 71.600 139.400 73.200 M304.600 72.000 C 304.740 72.227,304.360 72.424,303.724 72.454 C 302.642 72.507,302.637 72.516,303.600 72.691 C 304.150 72.791,304.916 73.155,305.302 73.501 C 305.689 73.846,306.120 74.014,306.260 73.874 C 306.400 73.733,306.219 73.505,305.857 73.367 C 305.082 73.069,304.986 72.153,305.700 71.865 C 305.975 71.754,305.784 71.649,305.276 71.632 C 304.756 71.614,304.461 71.775,304.600 72.000 M307.284 73.040 C 306.849 73.512,307.005 73.595,308.284 73.568 C 309.118 73.551,309.530 73.437,309.200 73.315 C 308.870 73.193,308.420 72.955,308.200 72.786 C 307.980 72.618,307.568 72.732,307.284 73.040 M310.457 73.156 C 310.079 73.396,310.049 73.583,310.357 73.774 C 310.601 73.924,310.800 73.857,310.800 73.624 C 310.800 73.391,311.304 73.200,311.920 73.200 C 313.136 73.200,315.192 74.016,315.197 74.500 C 315.199 74.665,315.470 74.800,315.800 74.800 C 316.130 74.800,316.400 75.059,316.400 75.376 C 316.400 75.693,316.578 76.063,316.795 76.197 C 317.043 76.350,317.070 76.117,316.865 75.565 C 316.205 73.781,311.978 72.192,310.457 73.156 M310.166 197.594 C 309.949 197.811,309.218 198.049,308.540 198.123 C 307.862 198.197,306.708 198.727,305.974 199.301 L 304.641 200.345 305.729 200.618 C 307.116 200.966,308.763 200.181,310.181 198.495 C 311.158 197.334,311.146 196.614,310.166 197.594 M303.200 211.000 C 304.515 211.752,305.164 211.760,304.176 211.013 C 303.749 210.690,303.130 210.426,302.800 210.427 C 302.452 210.428,302.620 210.668,303.200 211.000 M174.032 324.825 C 174.014 325.168,173.640 325.836,173.200 326.308 C 172.114 327.474,172.194 327.642,173.521 326.980 C 174.849 326.317,176.743 324.400,176.070 324.400 C 175.811 324.400,175.600 324.580,175.600 324.800 C 175.600 325.376,174.504 325.294,174.265 324.700 C 174.132 324.370,174.052 324.412,174.032 324.825 M141.064 327.529 C 140.699 327.933,140.400 328.417,140.400 328.606 C 140.400 328.794,140.009 329.365,139.530 329.874 C 139.052 330.383,138.872 330.800,139.130 330.800 C 139.389 330.800,139.600 330.633,139.600 330.428 C 139.600 330.223,140.005 329.998,140.500 329.927 C 141.188 329.828,141.375 329.569,141.292 328.827 C 141.233 328.294,141.407 327.719,141.680 327.550 C 141.953 327.382,142.076 327.143,141.953 327.019 C 141.829 326.896,141.430 327.125,141.064 327.529 M78.011 331.011 C 79.739 332.772,83.600 335.086,83.600 334.361 C 83.600 334.162,83.464 334.000,83.298 334.000 C 83.131 334.000,82.776 333.505,82.507 332.900 C 81.861 331.443,80.523 330.600,79.804 331.196 C 79.201 331.697,78.579 331.081,79.000 330.400 C 79.136 330.180,78.887 330.000,78.447 330.000 C 78.007 330.000,77.536 329.820,77.400 329.600 C 77.264 329.380,76.946 329.200,76.693 329.200 C 76.440 329.200,77.033 330.015,78.011 331.011 M109.200 329.507 C 109.200 329.752,109.380 330.064,109.600 330.200 C 109.820 330.336,110.000 330.765,110.000 331.154 C 110.000 332.516,111.796 333.727,113.378 333.431 C 114.580 333.205,114.800 333.275,114.800 333.884 C 114.800 334.720,117.137 335.937,117.544 335.313 C 117.685 335.097,118.063 334.835,118.385 334.732 C 118.774 334.607,118.518 334.318,117.624 333.872 C 116.012 333.068,115.862 333.049,116.254 333.700 C 116.420 333.975,115.936 333.707,115.178 333.105 C 114.420 332.503,113.170 331.708,112.400 331.339 C 111.630 330.970,110.595 330.306,110.100 329.864 C 109.605 329.422,109.200 329.261,109.200 329.507 M135.462 332.331 C 135.098 332.734,134.800 333.192,134.800 333.351 C 134.800 334.702,130.429 336.330,129.863 335.190 C 129.751 334.965,129.705 335.010,129.761 335.290 C 129.913 336.060,132.568 336.161,133.183 335.420 C 133.466 335.079,133.927 334.800,134.207 334.800 C 134.487 334.800,135.073 334.080,135.508 333.200 C 136.402 331.394,136.396 331.299,135.462 332.331 M85.400 336.000 C 85.536 336.220,85.879 336.400,86.162 336.400 C 86.445 336.400,87.002 336.760,87.400 337.200 C 88.183 338.065,89.034 338.303,88.551 337.521 C 88.389 337.258,88.828 337.450,89.528 337.949 C 91.377 339.266,91.133 338.504,89.025 336.381 C 88.213 335.563,84.916 335.217,85.400 336.000 M157.068 337.366 C 156.893 337.822,156.505 337.921,155.598 337.740 C 154.636 337.547,154.143 337.702,153.352 338.445 C 152.712 339.047,151.974 339.349,151.348 339.267 C 150.803 339.196,150.142 339.311,149.879 339.522 C 149.615 339.734,148.834 340.028,148.143 340.176 C 147.149 340.388,146.929 340.607,147.090 341.222 C 147.311 342.067,146.582 342.318,146.286 341.500 C 146.142 341.102,145.926 341.105,145.234 341.515 C 144.699 341.831,143.838 341.931,142.999 341.773 C 141.539 341.499,139.353 342.225,139.019 343.095 C 138.912 343.373,138.999 343.600,139.213 343.600 C 139.426 343.600,139.601 343.465,139.603 343.300 C 139.607 342.894,141.586 342.000,142.480 342.000 C 142.876 342.000,143.200 342.135,143.200 342.300 C 143.199 342.656,146.719 342.591,147.644 342.217 C 147.998 342.074,148.761 341.907,149.339 341.845 C 149.917 341.784,150.707 341.450,151.095 341.104 C 151.483 340.757,152.340 340.419,153.000 340.353 C 153.660 340.286,154.470 340.012,154.800 339.744 C 155.130 339.476,155.541 339.252,155.714 339.246 C 156.517 339.219,158.118 337.558,157.722 337.162 C 157.434 336.874,157.233 336.938,157.068 337.366 M103.017 341.972 C 102.891 342.177,102.998 342.475,103.255 342.634 C 103.537 342.808,103.617 342.751,103.455 342.489 C 103.293 342.227,103.626 341.988,104.293 341.887 L 105.400 341.720 104.324 341.660 C 103.732 341.627,103.144 341.768,103.017 341.972 M107.596 342.636 C 108.583 343.200,109.508 343.851,109.651 344.082 C 109.794 344.313,110.113 344.377,110.361 344.224 C 110.624 344.061,109.899 343.459,108.613 342.773 C 105.909 341.330,105.126 341.225,107.596 342.636 M140.655 343.657 C 140.245 343.895,139.296 343.990,138.546 343.869 C 137.741 343.738,137.277 343.801,137.415 344.024 C 137.790 344.630,140.651 344.461,141.200 343.800 C 141.784 343.096,141.671 343.067,140.655 343.657 " stroke="none" fill="#dee4fc" fill-rule="evenodd"></path><path id="path3" d="M116.508 58.941 C 114.466 59.953,115.109 60.402,118.513 60.340 C 121.197 60.291,121.470 60.234,120.000 60.031 L 118.200 59.781 120.108 59.465 C 121.157 59.291,121.911 58.980,121.784 58.774 C 121.471 58.268,117.619 58.390,116.508 58.941 M129.400 58.800 C 129.259 59.028,129.635 59.212,130.276 59.228 C 132.433 59.282,133.188 59.935,131.200 60.028 C 129.995 60.084,130.577 60.216,132.956 60.427 C 134.913 60.600,136.983 60.845,137.556 60.972 L 138.600 61.203 137.500 60.589 C 136.895 60.251,136.400 59.800,136.400 59.587 C 136.400 59.374,136.040 59.200,135.600 59.200 C 135.160 59.200,134.800 59.020,134.800 58.800 C 134.800 58.575,133.675 58.400,132.224 58.400 C 130.807 58.400,129.536 58.580,129.400 58.800 M141.600 60.322 C 141.600 60.572,141.015 60.946,140.300 61.152 C 139.085 61.503,139.069 61.530,140.051 61.564 C 141.101 61.600,142.343 60.610,141.857 60.124 C 141.716 59.982,141.600 60.072,141.600 60.322 M144.166 61.266 C 145.599 62.486,146.837 62.998,150.793 64.003 C 151.559 64.198,152.249 64.547,152.326 64.779 C 152.403 65.010,152.746 65.200,153.087 65.200 C 153.788 65.200,152.311 63.923,151.100 63.481 C 150.715 63.340,150.400 62.971,150.400 62.662 C 150.400 61.384,149.224 61.005,147.739 61.805 C 146.799 62.311,146.167 62.434,145.811 62.179 C 143.028 60.184,142.651 59.975,144.166 61.266 M108.000 61.568 C 107.450 61.976,106.640 62.400,106.200 62.509 L 105.400 62.707 106.200 62.752 C 106.640 62.776,107.540 62.353,108.200 61.812 C 109.603 60.663,109.458 60.485,108.000 61.568 M110.590 61.184 C 110.732 61.413,111.317 61.600,111.890 61.600 C 113.144 61.600,112.999 61.408,111.466 61.040 C 110.723 60.862,110.421 60.911,110.590 61.184 M102.354 61.900 C 102.329 62.065,102.340 62.515,102.379 62.900 C 102.427 63.372,102.170 63.600,101.588 63.600 C 101.114 63.600,100.269 63.960,99.709 64.400 C 99.150 64.840,98.874 65.200,99.097 65.200 C 99.320 65.200,99.726 64.930,100.000 64.600 C 100.274 64.270,101.005 64.000,101.625 64.000 C 102.245 64.000,102.864 63.820,103.000 63.600 C 103.136 63.380,103.687 63.200,104.224 63.200 C 105.294 63.200,105.461 62.821,104.720 62.080 C 104.194 61.554,102.428 61.420,102.354 61.900 M95.484 65.200 C 95.601 65.647,95.496 66.000,95.247 66.000 C 95.001 66.000,94.800 65.820,94.800 65.600 C 94.800 65.380,94.609 65.200,94.376 65.200 C 94.143 65.200,94.064 65.380,94.200 65.600 C 94.336 65.820,94.257 66.000,94.024 66.000 C 93.791 66.000,93.600 65.807,93.600 65.571 C 93.600 65.336,93.329 65.414,92.998 65.745 C 92.666 66.077,92.021 66.466,91.563 66.612 L 90.730 66.876 91.602 67.486 C 92.486 68.106,94.400 67.590,94.400 66.732 C 94.400 66.550,94.760 66.400,95.200 66.400 C 95.738 66.400,96.000 66.133,96.000 65.586 C 96.000 64.905,96.127 64.840,96.774 65.186 C 97.199 65.414,97.784 65.593,98.074 65.584 C 98.613 65.568,96.164 64.400,95.592 64.400 C 95.417 64.400,95.369 64.760,95.484 65.200 M119.024 66.613 C 118.596 66.936,118.451 67.200,118.700 67.200 C 118.949 67.200,119.264 67.020,119.400 66.800 C 119.749 66.236,122.654 66.302,123.605 66.896 C 124.238 67.291,124.562 67.291,125.195 66.896 C 126.381 66.155,128.830 66.299,130.300 67.196 C 131.015 67.632,131.600 67.898,131.600 67.788 C 131.600 66.154,120.946 65.158,119.024 66.613 M158.815 66.600 C 158.771 67.049,158.648 67.181,158.535 66.900 C 158.309 66.340,157.600 66.215,157.600 66.736 C 157.600 67.227,159.286 67.873,160.100 67.695 C 160.485 67.610,160.800 67.391,160.800 67.208 C 160.800 67.025,160.456 66.965,160.036 67.075 C 159.524 67.209,159.211 67.032,159.083 66.537 C 158.909 65.865,158.886 65.870,158.815 66.600 M115.033 67.547 C 114.915 67.737,115.156 68.198,115.568 68.571 C 116.453 69.372,117.012 68.555,116.161 67.704 C 115.567 67.110,115.324 67.076,115.033 67.547 M132.413 67.891 C 131.888 68.482,131.904 68.523,132.558 68.272 C 133.107 68.061,133.231 68.141,133.057 68.595 C 132.818 69.219,134.613 70.720,135.062 70.271 C 135.192 70.141,135.952 70.351,136.750 70.739 C 137.761 71.231,138.624 71.363,139.600 71.175 C 140.407 71.019,140.637 70.883,140.143 70.853 C 139.671 70.824,139.182 70.530,139.055 70.200 C 138.929 69.870,138.549 69.600,138.213 69.600 C 137.876 69.600,137.600 69.420,137.600 69.200 C 137.600 68.605,136.518 68.716,136.280 69.336 C 136.167 69.631,135.701 69.844,135.245 69.811 C 134.118 69.728,133.656 69.200,134.710 69.200 C 136.169 69.200,136.092 68.449,134.567 67.812 C 132.845 67.092,133.132 67.082,132.413 67.891 M113.168 68.100 C 112.632 69.748,113.680 70.924,114.692 69.811 C 114.861 69.624,114.768 69.606,114.484 69.769 C 114.095 69.994,114.032 69.812,114.227 69.034 C 114.434 68.208,113.422 67.317,113.168 68.100 M111.200 69.153 C 111.200 69.348,110.885 69.621,110.500 69.760 C 108.709 70.407,107.729 71.188,108.700 71.194 C 109.195 71.197,109.600 71.039,109.600 70.843 C 109.600 70.272,110.894 69.934,111.347 70.387 C 111.984 71.024,112.195 70.887,112.258 69.800 C 112.293 69.184,112.101 68.800,111.758 68.800 C 111.451 68.800,111.200 68.959,111.200 69.153 M162.600 69.810 C 163.480 70.352,164.569 70.797,165.020 70.798 C 166.021 70.800,166.806 71.520,166.546 72.196 C 166.441 72.470,166.725 72.792,167.177 72.910 C 168.213 73.181,168.206 73.050,167.100 71.479 C 166.428 70.525,165.895 70.200,165.000 70.200 C 164.031 70.200,163.826 70.050,163.936 69.422 C 164.057 68.724,163.999 68.703,163.371 69.222 C 162.832 69.666,162.631 69.684,162.502 69.300 C 162.409 69.025,162.033 68.806,161.667 68.812 C 161.285 68.820,161.684 69.246,162.600 69.810 M84.901 71.532 C 83.819 72.830,83.773 73.184,84.720 72.937 C 85.613 72.703,86.418 71.477,86.059 70.896 C 85.893 70.628,85.454 70.869,84.901 71.532 M229.700 71.097 C 231.405 71.172,234.195 71.172,235.900 71.097 C 237.605 71.022,236.210 70.961,232.800 70.961 C 229.390 70.961,227.995 71.022,229.700 71.097 M293.500 71.095 C 294.655 71.176,296.545 71.176,297.700 71.095 C 298.855 71.014,297.910 70.948,295.600 70.948 C 293.290 70.948,292.345 71.014,293.500 71.095 M303.867 71.067 C 303.720 71.213,303.603 71.528,303.606 71.767 C 303.610 72.048,303.716 72.036,303.910 71.733 C 304.073 71.475,304.835 71.189,305.603 71.097 L 307.000 70.928 305.567 70.864 C 304.778 70.829,304.013 70.920,303.867 71.067 M308.310 72.001 C 309.975 73.017,310.483 73.009,309.256 71.987 C 308.736 71.554,308.016 71.201,307.656 71.201 C 307.265 71.202,307.530 71.526,308.310 72.001 M106.600 73.029 C 105.940 73.805,105.315 74.530,105.212 74.641 C 105.109 74.752,105.316 74.730,105.672 74.594 C 106.028 74.457,106.459 74.572,106.630 74.849 C 106.807 75.136,106.739 75.420,106.471 75.510 C 106.212 75.596,106.000 75.860,106.000 76.095 C 106.000 76.331,106.356 76.202,106.791 75.809 C 107.225 75.415,107.468 74.909,107.329 74.685 C 107.190 74.460,107.272 74.397,107.511 74.545 C 108.174 74.955,108.490 74.115,108.009 73.217 C 107.644 72.535,107.685 72.457,108.291 72.684 C 108.913 72.917,108.933 72.867,108.451 72.275 C 107.783 71.454,108.022 71.357,106.600 73.029 M140.462 72.098 C 139.801 72.759,139.889 73.390,140.564 72.830 C 141.220 72.285,141.824 72.915,141.362 73.662 C 141.183 73.952,141.252 74.015,141.549 73.831 C 141.824 73.662,142.339 73.930,142.777 74.469 C 143.192 74.981,143.630 75.302,143.750 75.183 C 143.870 75.063,143.284 74.216,142.447 73.300 C 141.295 72.041,140.812 71.748,140.462 72.098 M226.800 72.400 C 226.800 72.649,229.133 72.800,233.000 72.800 C 236.867 72.800,239.200 72.649,239.200 72.400 C 239.200 72.151,236.867 72.000,233.000 72.000 C 229.133 72.000,226.800 72.151,226.800 72.400 M291.800 72.400 C 291.938 72.623,293.796 72.800,296.000 72.800 C 298.204 72.800,300.062 72.623,300.200 72.400 C 300.359 72.142,298.863 72.000,296.000 72.000 C 293.137 72.000,291.641 72.142,291.800 72.400 M310.600 72.400 C 310.305 72.878,311.089 72.878,312.200 72.400 C 312.914 72.093,312.885 72.053,311.924 72.028 C 311.332 72.013,310.736 72.180,310.600 72.400 M315.700 73.903 C 316.305 74.278,316.800 74.814,316.800 75.093 C 316.800 75.770,317.666 75.735,318.624 75.020 C 319.373 74.460,319.369 74.448,318.500 74.667 C 317.969 74.800,317.600 74.710,317.600 74.447 C 317.600 74.201,317.251 74.000,316.824 74.000 C 316.397 74.000,315.936 73.820,315.800 73.600 C 315.664 73.380,315.338 73.205,315.076 73.211 C 314.814 73.216,315.095 73.528,315.700 73.903 M82.162 74.500 C 81.406 75.392,81.407 75.394,82.200 74.752 C 82.640 74.396,83.270 74.005,83.600 73.884 C 84.109 73.697,84.104 73.658,83.562 73.632 C 83.211 73.614,82.581 74.005,82.162 74.500 M168.400 73.884 C 168.730 74.005,169.270 74.326,169.600 74.596 C 170.370 75.226,171.945 75.613,172.182 75.229 C 172.283 75.066,172.148 74.914,171.882 74.890 C 170.737 74.787,169.960 74.520,169.516 74.076 C 169.254 73.814,168.761 73.614,168.420 73.632 C 167.882 73.659,167.880 73.692,168.400 73.884 M79.033 75.500 C 78.868 75.665,78.538 75.800,78.300 75.800 C 77.655 75.800,77.474 76.705,78.078 76.909 C 78.365 77.006,78.261 77.032,77.848 76.966 C 76.953 76.825,75.788 77.822,76.403 78.202 C 76.629 78.341,76.704 78.632,76.571 78.847 C 76.416 79.098,76.142 79.084,75.811 78.809 C 75.272 78.362,74.594 79.261,75.094 79.761 C 75.650 80.317,76.484 79.895,78.179 78.200 C 79.169 77.210,80.177 76.400,80.418 76.400 C 80.665 76.400,80.595 76.138,80.257 75.800 C 79.572 75.115,79.449 75.085,79.033 75.500 M325.417 79.172 C 325.099 79.687,325.797 80.053,326.548 79.765 C 327.007 79.589,327.128 79.738,327.012 80.338 C 326.795 81.465,327.800 82.264,328.600 81.600 C 329.372 80.959,330.449 81.745,330.146 82.729 C 329.969 83.305,330.004 83.300,330.393 82.694 C 330.845 81.991,330.412 81.461,327.631 79.313 C 326.875 78.729,325.736 78.656,325.417 79.172 M73.879 81.609 C 73.490 82.164,73.075 82.332,72.556 82.145 C 72.140 81.995,71.933 82.020,72.097 82.199 C 72.260 82.379,72.206 82.752,71.977 83.028 C 71.691 83.372,71.691 83.609,71.974 83.784 C 72.340 84.010,75.200 81.554,75.200 81.013 C 75.200 80.505,74.399 80.867,73.879 81.609 M178.400 83.440 C 178.400 83.990,181.212 86.440,181.582 86.211 C 182.203 85.827,181.169 84.437,180.463 84.708 C 180.090 84.851,179.972 84.769,180.146 84.488 C 180.298 84.242,180.069 83.851,179.637 83.620 C 178.747 83.143,178.400 83.093,178.400 83.440 M331.200 83.600 C 330.715 83.914,330.772 83.989,331.500 83.994 C 331.995 83.997,332.400 83.820,332.400 83.600 C 332.400 83.099,331.976 83.099,331.200 83.600 M70.100 85.865 C 69.825 85.976,69.600 86.322,69.600 86.633 C 69.600 86.945,69.352 87.200,69.049 87.200 C 68.746 87.200,68.274 87.470,68.000 87.800 C 66.937 89.080,68.646 88.397,70.000 87.000 C 71.269 85.690,71.296 85.382,70.100 85.865 M336.617 89.972 C 336.344 90.414,336.975 90.892,337.344 90.522 C 337.725 90.142,337.654 89.600,337.224 89.600 C 337.017 89.600,336.744 89.768,336.617 89.972 M64.552 92.181 C 64.300 92.839,64.660 93.600,65.224 93.600 C 65.431 93.600,65.600 93.330,65.600 93.000 C 65.600 92.670,65.409 92.400,65.176 92.400 C 64.943 92.400,64.864 92.220,65.000 92.000 C 65.136 91.780,65.141 91.600,65.011 91.600 C 64.881 91.600,64.675 91.861,64.552 92.181 M334.800 148.400 C 334.800 148.620,335.160 148.800,335.600 148.800 C 336.040 148.800,336.400 148.620,336.400 148.400 C 336.400 148.180,336.040 148.000,335.600 148.000 C 335.160 148.000,334.800 148.180,334.800 148.400 M334.800 149.600 C 334.800 149.820,335.160 150.000,335.600 150.000 C 336.040 150.000,336.400 149.820,336.400 149.600 C 336.400 149.380,336.040 149.200,335.600 149.200 C 335.160 149.200,334.800 149.380,334.800 149.600 M310.388 198.664 C 308.489 200.848,304.800 201.922,304.800 200.290 C 304.800 200.057,304.684 199.982,304.543 200.124 C 304.129 200.538,305.229 201.600,306.072 201.600 C 306.940 201.600,310.449 199.750,310.878 199.066 C 311.031 198.823,311.280 198.747,311.431 198.898 C 311.816 199.283,313.207 198.474,313.168 197.886 C 313.145 197.520,313.087 197.523,312.935 197.900 C 312.687 198.515,311.720 198.559,311.521 197.964 C 311.441 197.724,310.931 198.039,310.388 198.664 M293.718 209.898 C 295.433 209.973,298.133 209.972,299.718 209.897 C 301.303 209.821,299.900 209.759,296.600 209.760 C 293.300 209.761,292.003 209.822,293.718 209.898 M303.900 210.561 C 304.615 210.891,305.200 211.329,305.200 211.534 C 305.200 211.739,305.578 212.006,306.040 212.126 C 306.502 212.247,306.772 212.521,306.640 212.736 C 306.501 212.961,306.735 213.038,307.195 212.917 C 308.066 212.689,307.902 212.000,306.976 212.000 C 306.148 212.000,306.263 211.209,307.100 211.154 C 307.485 211.129,307.170 210.974,306.400 210.810 C 305.630 210.647,304.460 210.388,303.800 210.237 L 302.600 209.960 303.900 210.561 M309.055 212.200 C 309.190 212.551,309.060 212.803,308.743 212.806 C 308.294 212.811,308.296 212.873,308.754 213.163 C 309.058 213.356,309.823 213.365,310.454 213.185 C 311.643 212.843,311.921 213.119,311.157 213.883 C 310.833 214.207,310.934 214.444,311.533 214.764 C 312.135 215.087,312.427 215.080,312.638 214.739 C 312.809 214.463,312.749 214.384,312.489 214.545 C 312.251 214.692,311.955 214.651,311.832 214.452 C 311.709 214.253,311.967 213.997,312.404 213.883 C 312.842 213.769,313.200 213.815,313.200 213.986 C 313.200 214.157,313.827 214.725,314.594 215.248 C 315.576 215.920,315.921 216.409,315.763 216.910 C 315.640 217.301,315.688 217.577,315.870 217.525 C 316.051 217.473,316.643 217.675,317.185 217.975 L 318.170 218.519 317.433 217.394 C 316.609 216.136,314.164 213.600,313.775 213.600 C 313.637 213.600,312.992 213.221,312.342 212.759 C 311.679 212.287,310.818 212.007,310.380 212.121 C 309.951 212.233,309.600 212.162,309.600 211.963 C 309.600 211.763,309.426 211.600,309.213 211.600 C 308.999 211.600,308.929 211.870,309.055 212.200 M337.371 263.106 C 337.135 263.268,336.823 263.722,336.677 264.117 C 336.283 265.184,333.241 264.951,332.783 263.819 C 332.557 263.264,332.443 263.199,332.425 263.620 C 332.350 265.456,335.930 265.889,337.050 264.180 C 337.435 263.592,337.956 263.251,338.280 263.375 C 338.589 263.494,338.732 263.413,338.597 263.195 C 338.309 262.729,337.959 262.703,337.371 263.106 M176.000 322.003 C 175.450 322.651,174.673 323.291,174.272 323.426 C 173.569 323.663,173.569 323.689,174.271 324.203 C 174.782 324.576,175.146 324.610,175.499 324.318 C 175.774 324.089,176.000 324.036,176.000 324.200 C 176.000 324.364,176.294 324.254,176.653 323.956 C 177.244 323.465,177.216 323.389,176.353 323.153 C 175.456 322.907,175.478 322.874,176.719 322.592 C 177.597 322.392,177.998 322.088,177.919 321.679 C 177.720 320.653,177.051 320.766,176.000 322.003 M71.200 322.704 C 71.200 322.871,71.564 323.235,72.009 323.513 C 72.759 323.981,72.781 323.959,72.313 323.209 C 71.809 322.403,71.200 322.126,71.200 322.704 M172.634 325.700 L 172.008 327.000 172.804 326.056 C 173.242 325.536,173.600 324.951,173.600 324.756 C 173.600 324.072,173.254 324.410,172.634 325.700 M142.230 327.781 L 141.060 328.297 141.964 328.781 C 142.462 329.047,142.973 329.160,143.101 329.032 C 143.229 328.905,143.123 328.800,142.867 328.800 C 142.610 328.800,142.400 328.612,142.400 328.382 C 142.400 328.153,142.696 328.018,143.059 328.082 C 143.421 328.147,143.796 327.975,143.892 327.700 C 144.105 327.091,143.755 327.108,142.230 327.781 M107.591 328.545 C 108.308 329.341,108.391 329.571,107.891 329.379 C 107.413 329.196,107.200 329.313,107.200 329.757 C 107.200 330.111,107.425 330.398,107.700 330.396 C 107.975 330.394,108.705 330.979,109.323 331.696 C 109.940 332.413,110.269 332.640,110.052 332.200 C 109.564 331.208,109.067 329.867,109.090 329.600 C 109.099 329.490,108.542 328.960,107.853 328.423 L 106.600 327.445 107.591 328.545 M77.427 329.168 C 77.632 329.363,78.160 329.591,78.600 329.676 C 79.131 329.777,79.361 330.093,79.283 330.615 C 79.190 331.243,79.245 331.284,79.557 330.818 C 80.113 329.991,81.769 330.932,82.858 332.694 C 83.687 334.035,84.390 334.230,84.730 333.211 C 84.852 332.844,84.694 332.755,84.234 332.932 C 83.862 333.074,83.656 333.033,83.775 332.841 C 84.066 332.369,80.132 329.697,78.423 329.207 C 77.670 328.991,77.222 328.973,77.427 329.168 M167.441 329.400 C 166.473 330.132,167.208 331.228,168.449 330.903 C 169.073 330.740,169.141 330.609,168.734 330.351 C 168.334 330.097,168.326 330.011,168.700 330.006 C 168.975 330.003,169.200 329.730,169.200 329.400 C 169.200 328.649,168.433 328.649,167.441 329.400 M139.796 330.807 C 139.658 331.030,139.377 331.109,139.172 330.982 C 138.966 330.856,138.599 331.258,138.355 331.876 C 137.973 332.846,137.875 332.900,137.640 332.270 C 137.391 331.600,137.283 331.626,136.328 332.581 C 135.101 333.808,134.618 335.200,135.420 335.200 C 135.944 335.200,140.400 331.115,140.400 330.635 C 140.400 330.266,140.072 330.360,139.796 330.807 M162.811 332.785 C 162.488 333.233,161.993 333.600,161.712 333.600 C 160.934 333.600,161.099 334.145,162.058 334.743 C 162.817 335.217,162.886 335.202,162.659 334.610 C 162.357 333.821,163.326 332.708,164.165 332.880 C 164.485 332.946,164.804 332.820,164.874 332.600 C 165.119 331.823,163.393 331.977,162.811 332.785 M84.800 334.000 C 84.800 334.220,85.205 334.406,85.700 334.413 C 86.592 334.425,86.593 334.431,85.800 335.067 C 85.097 335.630,85.089 335.677,85.733 335.454 C 86.136 335.314,87.036 335.186,87.733 335.170 L 89.000 335.139 87.729 334.670 C 87.029 334.411,86.324 334.065,86.162 333.900 C 85.733 333.464,84.800 333.532,84.800 334.000 M113.470 334.161 C 113.245 334.749,113.503 335.200,114.067 335.200 C 114.250 335.200,114.400 334.840,114.400 334.400 C 114.400 333.483,113.791 333.326,113.470 334.161 M159.336 334.828 C 158.866 335.002,158.363 335.337,158.217 335.572 C 158.072 335.807,157.603 336.000,157.176 336.000 C 156.749 336.000,156.400 336.225,156.399 336.500 C 156.399 336.780,155.867 337.019,155.194 337.043 C 154.531 337.066,153.663 337.381,153.263 337.743 C 152.864 338.104,152.091 338.400,151.545 338.400 C 150.999 338.400,150.204 338.664,149.776 338.987 C 149.349 339.310,148.460 339.586,147.800 339.600 C 146.706 339.623,144.451 340.800,145.500 340.800 C 145.749 340.800,146.064 340.620,146.200 340.400 C 146.336 340.180,146.949 340.000,147.562 340.000 C 148.175 340.000,149.242 339.718,149.933 339.373 C 150.624 339.029,151.385 338.867,151.625 339.015 C 151.864 339.163,152.500 338.869,153.039 338.363 C 153.702 337.741,154.470 337.455,155.410 337.481 C 156.213 337.504,156.801 337.326,156.803 337.060 C 156.808 336.369,158.873 335.513,159.360 336.000 C 159.863 336.503,160.927 336.529,160.619 336.030 C 160.493 335.827,160.668 335.602,161.009 335.530 C 161.531 335.420,161.515 335.331,160.909 334.956 C 160.488 334.696,159.836 334.643,159.336 334.828 M117.901 335.300 C 117.749 335.685,117.214 336.022,116.713 336.048 C 116.167 336.077,116.492 336.262,117.519 336.509 C 119.539 336.994,120.356 336.546,119.654 335.339 C 119.259 334.659,119.223 334.656,119.212 335.300 C 119.205 335.685,119.033 336.000,118.829 336.000 C 118.625 336.000,118.395 335.685,118.318 335.300 C 118.183 334.633,118.163 334.633,117.901 335.300 M122.037 336.100 C 121.587 337.303,122.115 337.588,124.800 337.588 C 127.302 337.588,127.761 337.367,127.895 336.100 C 127.986 335.243,127.856 335.200,125.182 335.200 C 122.637 335.200,122.343 335.284,122.037 336.100 M129.679 336.251 C 130.019 336.591,130.726 336.809,131.249 336.735 C 132.050 336.621,131.952 336.524,130.630 336.116 C 129.214 335.679,129.121 335.693,129.679 336.251 M90.382 337.175 C 91.042 338.102,91.480 338.365,92.057 338.182 C 92.487 338.045,93.100 338.151,93.419 338.416 C 94.129 339.005,94.194 339.759,93.500 339.359 C 93.225 339.201,93.134 339.220,93.298 339.401 C 93.820 339.977,96.087 340.067,95.754 339.499 C 95.594 339.225,95.841 339.332,96.304 339.738 C 96.924 340.280,97.471 340.404,98.373 340.206 C 99.151 340.035,99.600 340.094,99.600 340.368 C 99.600 340.606,99.420 340.800,99.200 340.800 C 98.980 340.800,98.800 340.957,98.800 341.150 C 98.800 341.667,101.367 342.098,101.530 341.609 C 101.605 341.384,102.597 341.168,103.733 341.128 L 105.800 341.056 103.808 340.902 C 102.712 340.818,101.718 340.591,101.599 340.399 C 101.480 340.206,100.937 339.958,100.391 339.847 C 98.661 339.493,94.608 338.262,94.400 338.026 C 93.860 337.413,91.982 336.721,91.432 336.932 C 91.072 337.070,90.850 336.976,90.905 336.709 C 90.957 336.455,90.660 336.174,90.244 336.084 C 89.545 335.932,89.556 336.014,90.382 337.175 M224.997 339.951 C 224.353 341.630,223.257 341.594,274.000 341.594 C 316.335 341.594,322.369 341.520,322.803 340.997 C 323.214 340.501,323.160 340.400,322.482 340.400 C 322.034 340.400,321.607 340.223,321.533 340.007 C 321.302 339.325,225.259 339.268,224.997 339.951 M142.400 341.269 C 142.400 341.451,142.940 341.600,143.600 341.600 C 144.260 341.600,144.800 341.530,144.800 341.445 C 144.800 341.360,144.260 341.212,143.600 341.115 C 142.940 341.018,142.400 341.087,142.400 341.269 M106.400 341.264 C 107.149 341.981,109.524 343.067,109.349 342.612 C 109.237 342.319,108.842 341.992,108.472 341.885 C 108.103 341.778,107.440 341.552,107.000 341.382 C 106.560 341.212,106.290 341.159,106.400 341.264 M139.491 341.756 C 138.880 342.027,138.505 342.372,138.657 342.524 C 138.809 342.676,138.759 342.800,138.547 342.800 C 138.334 342.800,137.960 342.600,137.715 342.355 C 137.470 342.110,137.057 341.981,136.798 342.067 C 136.538 342.154,136.763 342.459,137.297 342.745 C 138.159 343.206,138.441 343.148,139.790 342.232 C 141.412 341.132,141.300 340.955,139.491 341.756 M110.273 342.555 C 110.123 342.944,110.290 343.049,110.830 342.908 C 111.716 342.676,111.874 342.000,111.043 342.000 C 110.736 342.000,110.390 342.250,110.273 342.555 M134.700 342.465 C 134.095 342.686,133.600 343.037,133.600 343.246 C 133.600 343.455,133.195 343.789,132.700 343.988 C 132.148 344.209,132.040 344.359,132.420 344.375 C 132.761 344.389,133.256 344.184,133.520 343.920 C 133.893 343.547,134.107 343.547,134.480 343.920 C 135.147 344.587,136.000 344.520,136.000 343.800 C 136.000 343.470,135.798 343.200,135.551 343.200 C 135.241 343.200,135.256 343.015,135.600 342.600 C 136.164 341.920,136.184 341.923,134.700 342.465 M112.516 342.650 C 112.654 342.787,112.398 343.197,111.948 343.562 C 111.130 344.224,111.130 344.224,112.046 344.294 C 112.551 344.331,113.196 344.169,113.482 343.932 C 113.855 343.623,114.164 343.639,114.587 343.989 C 114.909 344.257,115.404 344.383,115.687 344.269 C 116.048 344.124,116.019 344.054,115.589 344.032 C 115.253 344.014,114.670 343.640,114.293 343.200 C 113.916 342.760,113.306 342.400,112.937 342.400 C 112.568 342.400,112.379 342.512,112.516 342.650 " stroke="none" fill="#f4f4fc" fill-rule="evenodd"></path><path id="path4" d="M115.200 59.551 C 115.200 59.949,113.498 60.681,112.000 60.927 C 111.045 61.084,111.051 61.094,112.120 61.146 C 113.356 61.206,115.600 60.202,115.600 59.590 C 115.600 59.375,115.510 59.200,115.400 59.200 C 115.290 59.200,115.200 59.358,115.200 59.551 M143.633 60.500 C 143.725 60.555,144.340 61.050,145.000 61.600 L 146.200 62.600 145.230 61.500 C 144.697 60.895,144.082 60.400,143.864 60.400 C 143.645 60.400,143.542 60.445,143.633 60.500 M138.900 61.076 C 139.285 61.176,139.915 61.176,140.300 61.076 C 140.685 60.975,140.370 60.893,139.600 60.893 C 138.830 60.893,138.515 60.975,138.900 61.076 M100.800 63.115 C 99.810 64.150,99.374 64.682,99.831 64.298 C 100.289 63.914,101.065 63.600,101.557 63.600 C 102.254 63.600,102.423 63.402,102.325 62.700 C 102.218 61.930,102.382 61.800,103.463 61.802 C 104.157 61.803,104.642 61.668,104.539 61.502 C 104.045 60.702,102.451 61.389,100.800 63.115 M93.778 64.836 C 93.654 65.036,93.833 65.200,94.176 65.200 C 94.519 65.200,94.800 65.380,94.800 65.600 C 94.800 65.820,94.993 66.000,95.229 66.000 C 95.465 66.000,95.600 65.702,95.529 65.338 C 95.388 64.612,94.138 64.254,93.778 64.836 M123.149 66.900 C 123.734 67.646,125.005 67.839,125.377 67.237 C 125.500 67.038,125.240 66.969,124.798 67.085 C 124.357 67.200,123.682 67.048,123.298 66.747 C 122.666 66.252,122.652 66.266,123.149 66.900 M129.941 67.405 C 130.898 67.952,131.798 68.394,131.941 68.388 C 132.355 68.368,129.043 66.404,128.600 66.407 C 128.380 66.408,128.983 66.857,129.941 67.405 M160.854 67.700 C 160.813 68.536,160.984 68.800,161.567 68.800 C 161.988 68.800,162.409 69.025,162.502 69.300 C 162.631 69.684,162.832 69.666,163.371 69.222 C 163.999 68.703,164.057 68.724,163.936 69.422 C 163.828 70.040,164.047 70.213,165.000 70.263 C 165.806 70.306,165.904 70.264,165.300 70.136 C 164.744 70.017,164.400 69.650,164.400 69.172 C 164.400 68.747,164.130 68.400,163.800 68.400 C 163.470 68.400,163.200 68.563,163.200 68.762 C 163.200 69.455,161.230 68.195,161.070 67.400 C 160.956 66.831,160.893 66.918,160.854 67.700 M117.300 67.870 C 116.351 68.532,116.111 69.200,116.824 69.200 C 117.057 69.200,117.136 69.020,117.000 68.800 C 116.864 68.580,116.909 68.400,117.100 68.400 C 117.291 68.400,117.796 68.136,118.224 67.813 C 119.267 67.024,118.440 67.075,117.300 67.870 M84.980 70.539 C 84.749 70.793,84.423 71.360,84.255 71.800 C 83.982 72.517,84.039 72.505,84.804 71.686 C 85.273 71.183,85.599 70.616,85.529 70.425 C 85.458 70.235,85.211 70.286,84.980 70.539 M109.857 70.600 C 109.527 70.930,108.974 71.200,108.629 71.200 C 107.871 71.200,107.822 71.648,108.500 72.379 C 108.908 72.818,108.874 72.874,108.320 72.679 C 107.849 72.514,107.706 72.611,107.853 72.995 C 108.109 73.661,109.200 73.333,109.200 72.591 C 109.200 72.302,108.975 71.976,108.700 71.865 C 108.425 71.754,108.605 71.649,109.100 71.632 C 109.595 71.614,110.000 71.420,110.000 71.200 C 110.000 70.980,110.371 70.800,110.824 70.800 C 111.277 70.800,111.536 70.620,111.400 70.400 C 111.052 69.838,110.555 69.902,109.857 70.600 M166.409 70.271 C 166.414 70.452,166.770 71.050,167.200 71.600 C 167.630 72.150,167.986 72.855,167.991 73.167 C 167.996 73.478,168.120 73.613,168.267 73.466 C 168.414 73.319,168.279 72.704,167.967 72.099 C 167.331 70.867,166.395 69.769,166.409 70.271 M139.400 71.600 C 140.060 71.768,140.375 71.927,140.100 71.953 C 139.825 71.979,139.600 72.304,139.600 72.676 C 139.600 73.266,139.675 73.254,140.187 72.576 C 141.057 71.426,140.938 71.195,139.500 71.247 L 138.200 71.295 139.400 71.600 M304.000 71.553 C 304.000 71.748,303.640 72.001,303.200 72.116 C 301.916 72.452,302.279 73.204,303.700 73.153 L 305.000 73.105 303.800 72.800 L 302.600 72.495 303.724 72.447 C 304.362 72.420,304.740 72.227,304.600 72.000 C 304.461 71.775,304.756 71.614,305.276 71.632 C 305.784 71.649,305.975 71.754,305.700 71.865 C 304.994 72.150,305.079 72.820,305.900 73.443 C 306.682 74.037,310.576 74.209,310.221 73.634 C 310.097 73.433,310.221 73.177,310.498 73.066 C 310.804 72.942,310.731 72.851,310.310 72.832 C 309.930 72.814,309.030 72.441,308.310 72.001 C 306.997 71.201,304.000 70.890,304.000 71.553 M140.622 72.765 C 140.474 73.004,140.588 73.203,140.876 73.206 C 141.293 73.211,141.290 73.282,140.857 73.556 C 140.524 73.768,140.469 73.995,140.715 74.148 C 140.936 74.284,141.231 74.096,141.371 73.731 C 141.672 72.947,141.025 72.113,140.622 72.765 M309.200 73.315 C 309.530 73.437,309.118 73.551,308.284 73.568 C 307.005 73.595,306.849 73.512,307.284 73.040 C 307.568 72.732,307.980 72.618,308.200 72.786 C 308.420 72.955,308.870 73.193,309.200 73.315 M81.600 74.389 C 81.011 74.844,80.253 75.074,79.754 74.951 C 79.189 74.810,78.821 74.968,78.645 75.427 C 78.419 76.017,78.472 76.039,79.021 75.582 C 79.553 75.141,79.717 75.141,79.990 75.584 C 80.242 75.992,80.631 75.824,81.660 74.860 C 83.157 73.456,83.126 73.212,81.600 74.389 M76.181 77.300 L 74.600 79.000 76.300 77.419 C 77.235 76.549,78.000 75.784,78.000 75.719 C 78.000 75.416,77.652 75.719,76.181 77.300 M326.175 80.040 C 326.025 80.283,326.319 80.868,326.828 81.340 C 327.337 81.813,327.562 81.930,327.328 81.600 C 327.094 81.270,326.954 80.685,327.016 80.300 C 327.142 79.522,326.599 79.355,326.175 80.040 M328.400 81.800 C 327.995 82.288,328.015 82.400,328.508 82.400 C 328.842 82.400,329.243 82.715,329.400 83.100 C 329.662 83.742,329.711 83.733,329.994 83.000 C 330.531 81.602,329.321 80.690,328.400 81.800 M290.158 210.566 C 290.038 210.878,290.017 211.643,290.110 212.266 C 290.254 213.226,290.289 213.172,290.340 211.910 L 290.400 210.420 296.700 210.299 L 303.000 210.178 296.687 210.089 C 291.553 210.017,290.334 210.106,290.158 210.566 M331.864 263.469 C 331.280 264.053,331.669 265.853,332.563 266.700 C 334.652 268.680,338.800 267.328,338.800 264.667 C 338.800 263.164,338.030 262.949,337.050 264.179 C 335.928 265.586,333.286 265.541,332.573 264.102 C 332.329 263.609,332.010 263.324,331.864 263.469 M176.000 322.800 C 175.531 323.103,175.634 323.189,176.476 323.194 C 177.068 323.197,177.664 323.020,177.800 322.800 C 178.116 322.289,176.790 322.289,176.000 322.800 M173.600 324.546 C 173.600 324.846,173.228 325.565,172.773 326.144 C 172.208 326.862,172.133 327.124,172.537 326.969 C 172.862 326.844,173.410 326.170,173.755 325.471 C 174.100 324.772,174.386 324.425,174.391 324.700 C 174.404 325.432,175.472 325.311,175.766 324.543 C 175.971 324.011,175.910 323.977,175.445 324.363 C 175.054 324.687,174.789 324.705,174.612 324.419 C 174.242 323.821,173.600 323.901,173.600 324.546 M141.565 327.630 C 141.108 327.920,141.134 327.989,141.700 327.994 C 142.085 327.997,142.400 328.199,142.400 328.443 C 142.400 328.686,142.152 328.791,141.850 328.674 C 141.509 328.544,141.319 328.718,141.350 329.131 C 141.380 329.533,141.054 329.849,140.534 329.923 C 140.057 329.991,139.552 330.351,139.410 330.723 C 139.204 331.266,139.253 331.301,139.656 330.900 C 139.933 330.625,140.402 330.400,140.698 330.400 C 141.795 330.400,143.306 328.449,142.688 327.831 C 142.326 327.469,141.931 327.399,141.565 327.630 M77.149 329.336 C 77.451 329.701,78.047 330.000,78.473 330.000 C 78.899 330.000,79.136 330.180,79.000 330.400 C 78.579 331.081,79.201 331.697,79.804 331.196 C 80.493 330.625,81.750 331.370,82.476 332.781 C 83.026 333.851,84.000 335.026,84.000 334.620 C 84.000 333.662,81.685 331.174,80.083 330.410 C 79.047 329.916,77.840 329.323,77.400 329.092 C 76.685 328.716,76.658 328.742,77.149 329.336 M109.100 329.999 C 109.375 330.308,109.600 330.862,109.600 331.231 C 109.600 331.600,109.915 332.140,110.300 332.432 C 110.896 332.882,110.925 332.878,110.500 332.401 C 110.225 332.092,110.000 331.538,110.000 331.169 C 110.000 330.800,109.685 330.260,109.300 329.968 C 108.704 329.518,108.675 329.522,109.100 329.999 M137.900 331.031 C 137.735 331.197,137.600 331.699,137.600 332.147 C 137.600 332.735,137.721 332.839,138.038 332.522 C 138.278 332.282,138.413 331.780,138.338 331.407 C 138.262 331.033,138.065 330.864,137.900 331.031 M136.119 332.090 C 135.231 333.238,135.143 333.738,135.981 332.874 C 136.476 332.364,136.798 331.865,136.697 331.764 C 136.596 331.663,136.336 331.810,136.119 332.090 M113.027 333.559 C 112.411 333.800,112.366 333.932,112.803 334.202 C 113.143 334.412,113.413 334.362,113.510 334.071 C 113.766 333.301,114.400 333.536,114.400 334.400 C 114.400 334.933,114.667 335.200,115.200 335.200 C 115.640 335.200,116.000 335.393,116.000 335.628 C 116.000 336.275,117.713 335.889,117.899 335.200 C 118.033 334.705,117.993 334.697,117.674 335.153 C 117.139 335.918,114.800 334.900,114.800 333.902 C 114.800 333.160,114.296 333.062,113.027 333.559 M163.200 334.800 C 162.650 335.230,162.397 335.586,162.638 335.591 C 162.879 335.596,163.402 335.240,163.800 334.800 C 164.712 333.792,164.488 333.792,163.200 334.800 M134.400 334.684 C 134.070 334.805,133.530 335.134,133.200 335.416 C 132.870 335.697,132.150 336.009,131.600 336.109 L 130.600 336.291 131.651 336.346 C 132.229 336.375,132.926 336.130,133.200 335.800 C 133.474 335.470,133.935 335.200,134.225 335.200 C 134.515 335.200,134.864 335.020,135.000 334.800 C 135.270 334.363,135.271 334.364,134.400 334.684 M118.400 335.400 C 118.400 335.730,118.580 336.000,118.800 336.000 C 119.020 336.000,119.200 335.730,119.200 335.400 C 119.200 335.070,119.020 334.800,118.800 334.800 C 118.580 334.800,118.400 335.070,118.400 335.400 M87.053 335.486 C 88.286 335.641,88.853 336.058,90.412 337.961 C 90.845 338.490,91.200 338.737,91.200 338.511 C 91.200 337.360,88.522 335.201,87.172 335.264 L 85.800 335.328 87.053 335.486 M157.700 336.144 C 157.205 336.389,156.800 336.817,156.800 337.095 C 156.800 337.373,156.590 337.600,156.333 337.600 C 156.077 337.600,156.001 337.735,156.166 337.899 C 156.331 338.064,156.705 337.871,156.997 337.471 C 157.491 336.796,157.556 336.792,157.907 337.419 C 158.260 338.051,158.353 338.049,159.349 337.396 C 160.345 336.744,160.368 336.664,159.707 336.162 C 158.898 335.548,158.904 335.548,157.700 336.144 M160.720 336.080 C 161.093 336.453,161.307 336.453,161.680 336.080 C 162.053 335.707,161.947 335.600,161.200 335.600 C 160.453 335.600,160.347 335.707,160.720 336.080 M145.700 340.544 C 145.205 340.789,144.800 341.127,144.800 341.295 C 144.800 341.463,144.395 341.614,143.900 341.632 C 143.392 341.649,143.235 341.757,143.539 341.878 C 143.836 341.996,144.541 341.847,145.105 341.546 C 145.912 341.117,146.167 341.107,146.299 341.500 C 146.554 342.260,147.144 342.097,147.022 341.300 C 146.963 340.915,147.204 340.478,147.557 340.328 C 148.071 340.111,148.040 340.060,147.400 340.077 C 146.960 340.089,146.195 340.299,145.700 340.544 M101.284 341.815 C 101.001 342.137,100.821 342.415,100.884 342.432 C 101.728 342.669,103.125 342.529,103.071 342.212 C 103.032 341.985,103.810 341.692,104.800 341.560 C 106.553 341.326,106.538 341.319,104.200 341.275 C 102.550 341.244,101.639 341.413,101.284 341.815 M110.600 342.986 C 109.776 343.363,109.627 343.545,110.124 343.568 C 110.570 343.588,110.736 343.779,110.558 344.068 C 110.366 344.378,110.483 344.454,110.905 344.292 C 111.255 344.157,111.757 344.307,112.020 344.624 C 112.497 345.199,115.234 345.432,115.727 344.939 C 116.239 344.428,113.935 343.556,113.351 344.041 C 113.054 344.287,112.493 344.367,112.105 344.216 C 111.437 343.957,111.436 343.916,112.094 343.432 C 113.414 342.460,112.406 342.159,110.600 342.986 M135.400 342.800 C 135.264 343.020,135.343 343.200,135.576 343.200 C 135.809 343.200,136.000 343.470,136.000 343.800 C 136.000 344.488,135.157 344.597,134.548 343.988 C 134.266 343.706,133.803 343.750,133.074 344.128 C 132.490 344.431,132.129 344.796,132.273 344.939 C 132.687 345.354,135.527 345.241,135.800 344.800 C 135.936 344.580,136.407 344.400,136.847 344.400 C 137.287 344.400,137.536 344.220,137.400 344.000 C 137.264 343.780,137.513 343.600,137.953 343.600 C 138.393 343.600,138.854 343.437,138.977 343.237 C 139.100 343.038,138.861 342.964,138.446 343.072 C 138.030 343.181,137.569 343.074,137.422 342.835 C 137.084 342.289,135.730 342.266,135.400 342.800 M144.305 342.683 C 144.802 342.779,145.522 342.775,145.905 342.675 C 146.287 342.575,145.880 342.496,145.000 342.501 C 144.120 342.505,143.807 342.587,144.305 342.683 " stroke="none" fill="#ecedfc" fill-rule="evenodd"></path></g></svg>